<?xml version="1.0" encoding="UTF-8"?>
<svg width="47px" height="21px" viewBox="0 0 47 21" version="1.1" xmlns="http://www.w3.org/2000/svg" xmlns:xlink="http://www.w3.org/1999/xlink">
    <!-- Generator: Sketch 43.2 (39069) - http://www.bohemiancoding.com/sketch -->
    <title>julian-signature</title>
    <desc>Created with Sketch.</desc>
    <defs></defs>
    <g id="Page-1" stroke="none" stroke-width="1" fill="none" fill-rule="evenodd">
        <g id="julian-signature" fill="#000000">
            <path d="M9.40234375,3.140625 C9.40234375,3.37500117 9.3125009,3.70312289 9.1328125,4.125 C8.93749902,4.69531535 8.76367264,5.07421781 8.61132812,5.26171875 C8.45898361,5.44921969 8.22656406,5.54296875 7.9140625,5.54296875 C7.24218414,5.54296875 6.90625,5.32031473 6.90625,4.875 C6.90625,4.52343574 7.11327918,4.01953453 7.52734375,3.36328125 C7.74609484,3.01171699 7.92187434,2.79492229 8.0546875,2.71289062 C8.18750066,2.63085896 8.40234227,2.58984375 8.69921875,2.58984375 C9.16797109,2.58984375 9.40234375,2.77343566 9.40234375,3.140625 Z M1.890625,9.2109375 L2.21875,8.28515625 L4.38671875,7.30078125 C5.6757877,6.6914032 6.60937211,6.38671875 7.1875,6.38671875 C7.64062727,6.38671875 7.8671875,6.59374793 7.8671875,7.0078125 C7.8671875,7.15625074 7.80664123,7.39648271 7.68554687,7.72851562 C7.56445252,8.06054854 7.36132955,8.53515316 7.07617187,9.15234375 C6.7910142,9.76953434 6.46093937,10.4706992 6.0859375,11.2558594 C5.71093563,12.0410196 5.32031453,12.8476521 4.9140625,13.6757812 C5.50000293,13.2773418 6.01366967,12.9082048 6.45507812,12.5683594 C6.89648658,12.2285139 7.41405953,11.8007838 8.0078125,11.2851562 L8.03125,12.1171875 C6.5312425,13.414069 5.14063141,14.7031186 3.859375,15.984375 C3.08593363,17.492195 2.40234672,18.6289024 1.80859375,19.3945312 C1.21484078,20.1601601 0.769532734,20.5429688 0.47265625,20.5429688 C0.261717695,20.5429688 0.15625,20.3359396 0.15625,19.921875 C0.15625,19.41406 0.269530117,18.9042994 0.49609375,18.3925781 C0.722657383,17.8808568 1.07031016,17.3417997 1.5390625,16.7753906 C2.00781484,16.2089815 2.5624968,15.6328154 3.203125,15.046875 C4.19531746,13.0937402 4.89648232,11.6738326 5.30664062,10.7871094 C5.71679893,9.90038619 5.921875,9.32031387 5.921875,9.046875 C5.921875,8.87499914 5.83984457,8.7890625 5.67578125,8.7890625 C5.58984332,8.7890625 5.00781789,9.04101311 3.9296875,9.54492188 C2.85155711,10.0488306 2.17968883,10.3007812 1.9140625,10.3007812 C1.74999918,10.3007812 1.66796875,10.2109384 1.66796875,10.03125 C1.66796875,9.91406191 1.74218676,9.64062715 1.890625,9.2109375 Z M13.4453125,10.5117188 C12.3124943,12.0117262 11.4511748,13.0781218 10.8613281,13.7109375 C10.2714814,14.3437532 9.78906438,14.6601562 9.4140625,14.6601562 C9.11718602,14.6601562 8.84375125,14.5371106 8.59375,14.2910156 C8.34374875,14.0449206 8.15039131,13.7128927 8.01367188,13.2949219 C7.87695244,12.876951 7.80859375,12.4296899 7.80859375,11.953125 C7.80859375,11.6406234 7.83789033,11.3593763 7.89648438,11.109375 C7.95507842,10.8593737 8.06640543,10.5839859 8.23046875,10.2832031 C8.39453207,9.98242037 8.61132678,9.65625176 8.88085938,9.3046875 C9.15039197,8.95312324 9.4804668,8.55468973 9.87109375,8.109375 C10.1054699,7.83593613 10.3027336,7.60546969 10.4628906,7.41796875 C10.6230477,7.23046781 10.7792961,7.10351596 10.9316406,7.03710938 C11.0839851,6.97070279 11.3320295,6.9375 11.6757812,6.9375 C11.9257825,6.9375 12.1640614,6.97070279 12.390625,7.03710938 C12.6171886,7.10351596 12.7304688,7.17187465 12.7304688,7.2421875 C12.7304688,7.3828132 12.6152355,7.63671691 12.3847656,8.00390625 C12.1542957,8.37109559 11.7832057,8.81835674 11.2714844,9.34570312 C10.7597631,9.87304951 10.1679721,10.3906225 9.49609375,10.8984375 C9.34765551,11.3593773 9.2734375,11.7109363 9.2734375,11.953125 C9.2734375,12.2890642 9.40234246,12.4570312 9.66015625,12.4570312 C9.75390672,12.4570312 9.91015516,12.3769539 10.1289062,12.2167969 C10.3476573,12.0566398 10.7167943,11.7480492 11.2363281,11.2910156 C11.755862,10.8339821 12.2226542,10.4296893 12.6367188,10.078125 C12.9414078,9.81249867 13.2949199,9.41601826 13.6972656,8.88867188 C14.0996114,8.36132549 14.42578,7.96484508 14.6757812,7.69921875 C15.2539091,7.0898407 15.6484364,6.69336029 15.859375,6.50976562 C16.0703136,6.32617096 16.2734365,6.234375 16.46875,6.234375 C16.6562509,6.234375 16.7832028,6.29296816 16.8496094,6.41015625 C16.916016,6.52734434 16.9492188,6.7656232 16.9492188,7.125 C16.9492188,7.28906332 16.9335939,7.42187449 16.9023438,7.5234375 C16.8710936,7.62500051 16.8066411,7.75585857 16.7089844,7.91601562 C16.6113276,8.07617268 16.414064,8.3710916 16.1171875,8.80078125 C15.820311,9.2304709 15.468752,9.73827832 15.0625,10.3242188 C14.8437489,10.6367203 14.6523446,10.9785138 14.4882812,11.3496094 C14.3242179,11.720705 14.2421875,11.9999991 14.2421875,12.1875 C14.2421875,12.593752 14.4023421,12.796875 14.7226562,12.796875 C14.9882826,12.796875 15.2968732,12.6875011 15.6484375,12.46875 C16.0000018,12.2499989 16.5390589,11.8554716 17.265625,11.2851562 L17.265625,12.0703125 C16.3515579,12.9140667 15.6757834,13.5273418 15.2382812,13.9101562 C14.8007791,14.2929707 14.4218766,14.5820303 14.1015625,14.7773438 C13.7812484,14.9726572 13.4765639,15.0703125 13.1875,15.0703125 C12.5312467,15.0703125 12.203125,14.6796914 12.203125,13.8984375 C12.203125,13.601561 12.3007803,13.2011744 12.4960938,12.6972656 C12.6914072,12.1933569 13.0078103,11.4648485 13.4453125,10.5117188 Z M22.7617188,11.1796875 L22.7617188,12.046875 C21.1288981,14.2109483 19.8007864,15.2929687 18.7773438,15.2929687 C18.2226535,15.2929687 17.787111,14.9902374 17.4707031,14.3847656 C17.1542953,13.7792938 16.9960938,12.9843799 16.9960938,12 C16.9960938,11.203121 17.1835919,10.2558649 17.5585938,9.15820312 C17.9335956,8.06054139 18.4355437,6.94727127 19.0644531,5.81835938 C19.6933625,4.68944748 20.3456997,3.70508232 21.0214844,2.86523437 C21.697269,2.02538643 22.3242159,1.43750168 22.9023438,1.1015625 C23.1367199,0.960936797 23.3203118,0.890625 23.453125,0.890625 C23.6171883,0.890625 23.7265622,0.962889902 23.78125,1.10742188 C23.8359378,1.25195385 23.8632812,1.49999824 23.8632812,1.8515625 C23.8632812,2.93750543 23.4218794,4.27147646 22.5390625,5.85351562 C21.6562456,7.43555479 20.4257891,9.05077301 18.8476562,10.6992187 C18.7695309,11.1054708 18.7304688,11.4179677 18.7304688,11.6367188 C18.7304688,12.1367212 18.8378896,12.5429672 19.0527344,12.8554687 C19.2675792,13.1679703 19.5664043,13.3242187 19.9492188,13.3242187 C20.1445322,13.3242187 20.3554676,13.2480476 20.5820312,13.0957031 C20.8085949,12.9433586 21.0468737,12.7539074 21.296875,12.5273438 C21.5468763,12.3007801 22.0351526,11.8515659 22.7617188,11.1796875 Z M19.2578125,9.0703125 C19.6640645,8.67187301 20.0566387,8.21875254 20.4355469,7.7109375 C20.814455,7.20312246 21.1718733,6.66015914 21.5078125,6.08203125 C21.8437517,5.50390336 22.1074209,4.9843773 22.2988281,4.5234375 C22.4902353,4.0624977 22.5859375,3.71484492 22.5859375,3.48046875 C22.5859375,3.30078035 22.5234381,3.2109375 22.3984375,3.2109375 C22.3515623,3.2109375 22.2617194,3.25390582 22.1289062,3.33984375 C21.6523414,3.7304707 21.1171905,4.49413494 20.5234375,5.63085938 C19.9296845,6.76758381 19.5078138,7.91405672 19.2578125,9.0703125 Z M27.4609375,6.0703125 C27.265624,6.0703125 27.080079,5.99609449 26.9042969,5.84765625 C26.7285147,5.69921801 26.640625,5.51171988 26.640625,5.28515625 C26.640625,4.94140453 26.8046859,4.55859586 27.1328125,4.13671875 C27.4609391,3.71484164 27.8007795,3.50390625 28.1523437,3.50390625 C28.3867199,3.50390625 28.5820305,3.57617115 28.7382812,3.72070312 C28.894532,3.8652351 28.9726562,4.07421738 28.9726562,4.34765625 C28.9726562,4.68359543 28.8125016,5.05468547 28.4921875,5.4609375 C28.1718734,5.86718953 27.8281268,6.0703125 27.4609375,6.0703125 Z M28.2578125,11.3085938 L28.2578125,12.1640625 C27.4999962,13.1406299 26.792972,13.8769506 26.1367188,14.3730469 C25.4804655,14.8691431 24.9218773,15.1171875 24.4609375,15.1171875 C23.8203093,15.1171875 23.3437516,14.7812534 23.03125,14.109375 C22.7187484,13.4374966 22.5625,12.703129 22.5625,11.90625 C22.5625,11.601561 22.5937497,11.3105483 22.65625,11.0332031 C22.7187503,10.755858 22.7929683,10.5273446 22.8789062,10.3476562 C22.9648442,10.1679679 23.1249988,9.88672066 23.359375,9.50390625 C24.4687555,7.77733512 25.4843704,6.9140625 26.40625,6.9140625 C26.8828149,6.9140625 27.1210938,7.09765441 27.1210938,7.46484375 C27.1210938,7.714845 26.9667984,8.10546609 26.6582031,8.63671875 C26.3496078,9.16797141 26.07422,9.54687387 25.8320312,9.7734375 C25.1523404,10.4296908 24.7089854,10.8867175 24.5019531,11.1445312 C24.2949208,11.402345 24.1914062,11.6953109 24.1914062,12.0234375 C24.1914062,12.3046889 24.2968739,12.5390616 24.5078125,12.7265625 C24.7187511,12.9140634 24.9921858,13.0078125 25.328125,13.0078125 C25.6953143,13.0078125 26.0996072,12.8730482 26.5410156,12.6035156 C26.9824241,12.333983 27.554684,11.9023467 28.2578125,11.3085938 Z M29.5234375,9.2109375 C30.7109434,8.13280711 31.8632757,7.33203387 32.9804688,6.80859375 C34.0976618,6.28515363 34.9609345,6.0234375 35.5703125,6.0234375 C35.7343758,6.0234375 35.886718,6.09179619 36.0273438,6.22851562 C36.1679695,6.36523506 36.2792965,6.5234366 36.3613281,6.703125 C36.4433598,6.8828134 36.484375,7.01562457 36.484375,7.1015625 C36.484375,7.2421882 36.429688,7.34570279 36.3203125,7.41210938 C36.210937,7.47851596 36.0195326,7.55859328 35.7460938,7.65234375 C35.8007815,7.77734437 35.8710933,7.93749902 35.9570312,8.1328125 C36.0429692,8.32812598 36.1093748,8.48632752 36.15625,8.60742188 C36.2031252,8.72851623 36.2265625,8.83593703 36.2265625,8.9296875 C36.2265625,9.11718844 36.0371113,9.46679432 35.6582031,9.97851562 C35.279295,10.4902369 35.0136726,10.8671863 34.8613281,11.109375 C34.7089836,11.3515637 34.6328125,11.6484357 34.6328125,12 C34.6328125,12.5781279 34.8984348,12.8671875 35.4296875,12.8671875 C35.9765652,12.8671875 36.8320254,12.3554739 37.9960938,11.3320312 L37.9960938,12.046875 C36.0195214,14.2421985 34.605473,15.3398438 33.7539062,15.3398438 C33.4492172,15.3398438 33.2324225,15.2402354 33.1035156,15.0410156 C32.9746087,14.8417959 32.9101562,14.546877 32.9101562,14.15625 C32.9101562,13.5390594 33.1328103,12.6445371 33.578125,11.4726562 C32.4374943,12.7382876 31.5898465,13.6386692 31.0351562,14.1738281 C30.480466,14.7089871 30.0234393,14.9765625 29.6640625,14.9765625 C29.4921866,14.9765625 29.277345,14.8281265 29.0195312,14.53125 C28.7617175,14.2343735 28.5332041,13.8496117 28.3339844,13.3769531 C28.1347646,12.9042945 28.0351562,12.414065 28.0351562,11.90625 C28.0351562,11.5390607 28.0703121,11.2324231 28.140625,10.9863281 C28.2109379,10.7402331 28.3476552,10.4882825 28.5507812,10.2304688 C28.7539073,9.97265496 29.0781228,9.63281461 29.5234375,9.2109375 Z M35.1367187,7.921875 C33.1054586,8.85156715 31.6582074,9.64062176 30.7949219,10.2890625 C29.9316363,10.9375032 29.5,11.6054653 29.5,12.2929688 C29.5,12.54297 29.5429683,12.7480461 29.6289062,12.9082031 C29.7148442,13.0683602 29.8320305,13.1484375 29.9804687,13.1484375 C30.0664067,13.1484375 30.2187489,13.0937505 30.4375,12.984375 C31.2578166,12.4999976 32.0078091,11.8691445 32.6875,11.0917969 C33.3671909,10.3144492 34.183589,9.25781918 35.1367187,7.921875 Z M45.7890625,9.1875 C44.4140556,10.7187577 43.7265625,11.7851532 43.7265625,12.3867188 C43.7265625,12.7226579 43.8632799,12.890625 44.1367188,12.890625 C44.3632824,12.890625 44.6582013,12.7714856 45.0214844,12.5332031 C45.3847674,12.2949207 45.9531211,11.8710968 46.7265625,11.2617188 L46.7265625,12.0703125 C45.617182,13.164068 44.765628,13.9531226 44.171875,14.4375 C43.578122,14.9218774 43.0937519,15.1640625 42.71875,15.1640625 C42.0781218,15.1640625 41.7578125,14.7421917 41.7578125,13.8984375 C41.7578125,13.6484362 41.7968746,13.402345 41.875,13.1601562 C41.9531254,12.9179675 42.0605462,12.6660169 42.1972656,12.4042969 C42.3339851,12.1425768 42.5429673,11.7675806 42.8242188,11.2792969 C43.1054702,10.7910132 43.4296857,10.2382843 43.796875,9.62109375 C43.3515603,9.84765738 42.7929721,10.2968716 42.1210938,10.96875 C41.6835916,11.3906271 41.3125015,11.7910137 41.0078125,12.1699219 C40.7031235,12.54883 40.3769549,12.9707008 40.0292969,13.4355469 C39.6816389,13.9003929 39.4277352,14.2128898 39.2675781,14.3730469 C39.1074211,14.5332039 38.9453133,14.6132812 38.78125,14.6132812 C38.5312487,14.6132812 38.3007823,14.3515651 38.0898438,13.828125 C37.8789052,13.3046849 37.7734375,12.695316 37.7734375,12 C37.7734375,11.5703104 37.8222651,11.2343762 37.9199219,10.9921875 C38.0175786,10.7499988 38.2109361,10.4062522 38.5,9.9609375 C39.0390652,9.13280836 39.5039043,8.52539256 39.8945312,8.13867188 C40.2851582,7.75195119 40.6601545,7.55859375 41.0195312,7.55859375 C41.2695325,7.55859375 41.4707024,7.60156207 41.6230469,7.6875 C41.7753914,7.77343793 41.8515625,7.9062491 41.8515625,8.0859375 C41.8515625,8.16406289 41.8281252,8.24609332 41.78125,8.33203125 C41.7343748,8.41796918 41.6816409,8.4960934 41.6230469,8.56640625 C41.5644528,8.6367191 41.4414072,8.77343648 41.2539062,8.9765625 C40.0195251,10.3437568 39.4023438,11.2304667 39.4023438,11.6367188 C39.4023438,11.8632824 39.4765618,11.9765625 39.625,11.9765625 C39.7187505,11.9765625 39.9003893,11.8261734 40.1699219,11.5253906 C40.4394545,11.2246079 40.7871072,10.8300806 41.2128906,10.3417969 C41.638674,9.85351318 42.1425752,9.34375266 42.7246094,8.8125 C43.3066435,8.28124734 43.9687463,7.76953371 44.7109375,7.27734375 C45.1250021,6.9882798 45.4687486,6.84375 45.7421875,6.84375 C45.8671881,6.84375 45.9902338,7.01562328 46.1113281,7.359375 C46.2324225,7.70312672 46.2929688,8.05077949 46.2929688,8.40234375 C46.2929688,8.57421961 46.1250017,8.83593574 45.7890625,9.1875 Z" id="julian"></path>
        </g>
    </g>
</svg>