<?xml version="1.0" encoding="UTF-8"?>
<svg width="400px" height="200px" viewBox="0 0 400 200" version="1.1" xmlns="http://www.w3.org/2000/svg" xmlns:xlink="http://www.w3.org/1999/xlink">
    <!-- Generator: Sketch 43.2 (39069) - http://www.bohemiancoding.com/sketch -->
    <title>Untitled</title>
    <desc>Created with Sketch.</desc>
    <defs></defs>
    <g id="Page-1" stroke="none" stroke-width="1" fill="none" fill-rule="evenodd">
        <rect id="Rectangle" fill="#4D4D4D" x="100" y="100" width="50" height="50"></rect>
        <rect id="Rectangle" fill="#4D4D4D" x="150" y="150" width="50" height="50"></rect>
        <rect id="Rectangle" fill="#4D4D4D" x="200" y="100" width="50" height="50"></rect>
        <rect id="Rectangle" fill="#4D4D4D" x="50" y="50" width="50" height="50"></rect>
        <rect id="Rectangle" fill="#4D4D4D" x="100" y="50" width="50" height="50"></rect>
        <rect id="Rectangle" fill="#4D4D4D" x="150" y="0" width="50" height="50"></rect>
        <rect id="Rectangle" fill="#4D4D4D" x="100" y="0" width="50" height="50"></rect>
        <rect id="Rectangle" fill="#4D4D4D" x="0" y="0" width="50" height="50"></rect>
        <rect id="Rectangle" fill="#4D4D4D" x="200" y="0" width="50" height="50"></rect>
        <rect id="Rectangle" fill="#4D4D4D" x="300" y="0" width="50" height="50"></rect>
        <rect id="Rectangle" fill="#4D4D4D" x="250" y="50" width="50" height="50"></rect>
        <rect id="Rectangle" fill="#4D4D4D" x="350" y="0" width="50" height="50"></rect>
        <rect id="Rectangle" fill="#4D4D4D" x="350" y="50" width="50" height="50"></rect>
        <rect id="Rectangle" fill="#4D4D4D" x="300" y="100" width="50" height="50"></rect>
        <rect id="Rectangle" fill="#4D4D4D" x="350" y="150" width="50" height="50"></rect>
    </g>
</svg>