<?xml version="1.0" encoding="UTF-8"?>
<svg width="1085px" height="288px" viewBox="0 0 1085 288" version="1.1" xmlns="http://www.w3.org/2000/svg" xmlns:xlink="http://www.w3.org/1999/xlink">
    <!-- Generator: Sketch 43.2 (39069) - http://www.bohemiancoding.com/sketch -->
    <title>Group 2</title>
    <desc>Created with Sketch.</desc>
    <defs></defs>
    <g id="Page-1" stroke="none" stroke-width="1" fill="none" fill-rule="evenodd">
        <g id="Group-2">
            <g id="Group">
                <path d="M341.757473,122.856262 C340.984369,63.2381822 293.809862,15.14687 235.66031,15.14687 C196.732246,15.14687 162.806621,36.7463066 144.327918,68.8576709 C137.946019,66.7219623 131.139672,65.5253596 124.060464,65.5253596 C92.7876466,65.5253596 66.6840153,88.1244896 60.2717992,118.297055 C33.6679241,131.399097 15.1589032,159.284485 15.1589032,191.471583 C15.1589032,236.124556 50.6762135,272.64366 94.1064712,272.64366 L257.443653,272.64366 C258.368347,272.64366 259.247563,272.537632 260.172256,272.507338 C261.08179,272.537632 261.976165,272.64366 262.900859,272.64366 L328.235731,272.64366 C368.664526,272.64366 401.741253,238.638937 401.741253,197.075925 C401.710935,160.269031 375.758893,129.445151 341.757473,122.856262 Z" id="Shape" fill="#48A0DC"></path>
                <path d="M328.205414,287.79053 L262.870541,287.79053 C261.91553,287.79053 260.960519,287.729942 260.020667,287.669355 C259.308199,287.729942 258.383505,287.79053 257.428495,287.79053 L94.1064712,287.79053 C42.2175455,287.79053 0,244.57651 0,191.48673 C0,157.22451 18.327114,125.264615 47.2351424,108.133505 C57.6341501,74.2802504 88.8614907,50.3784896 124.030146,50.3784896 C128.517182,50.3784896 133.004217,50.7571613 137.430617,51.5296517 C160.108336,19.4788748 196.762564,0 235.66031,0 C297.842131,0 349.715897,48.8486557 356.234226,111.056851 C391.97892,123.265228 416.869839,157.694063 416.869839,197.075925 C416.869839,247.09089 377.092877,287.79053 328.205414,287.79053 Z M259.42947,257.360468 L262.249026,257.451349 L328.205414,257.49679 C360.372606,257.49679 386.552032,230.383892 386.552032,197.075925 C386.552032,168.039376 366.496803,143.092481 338.862123,137.715342 L326.750159,135.367577 L326.583411,123.053172 C325.931578,71.9021918 285.154129,30.29374 235.66031,30.29374 C203.296051,30.29374 174.069686,47.5460249 157.470687,76.4159591 L151.270695,87.1853836 L139.492227,83.2320506 C134.459472,81.5356011 129.259968,80.6722295 124.045305,80.6722295 C100.700594,80.6722295 80.1148035,97.8336332 75.0972066,121.447604 L73.5509984,128.642367 L66.9568755,131.883797 C44.6884467,142.865278 30.3178064,166.252045 30.3178064,191.48673 C30.3178064,227.884659 58.9378157,257.49679 94.1064712,257.49679 L259.42947,257.360468 Z" id="Shape" fill="#B1D3EF"></path>
            </g>
            <path d="M581.68,242.35 C577.9,226.96 574.12,211.57 570.07,196.18 L513.64,196.18 C509.86,211.03 506.08,226.15 502.3,241 L458.83,241 C475.3,179.17 493.12,116.8 512.56,55.24 L572.23,55.24 C591.67,116.8 609.76,177.82 626.5,239.65 L581.68,242.35 Z M540.37,93.85 C534.16,116.8 527.95,140.02 522.01,163.24 L561.43,163.24 C555.49,140.02 549.28,117.07 543.07,93.85 L540.37,93.85 Z M701.56,241 L657.55,241 L657.55,55.24 C750.7,44.17 795.25,65.23 795.25,114.64 C795.25,160.81 755.83,183.49 701.56,190.78 L701.56,241 Z M752.05,123.82 C752.05,98.71 735.04,87.37 701.56,90.07 L701.56,153.79 C735.58,158.38 752.05,150.55 752.05,123.82 Z M904.6,89.8 L942.13,89.8 L942.13,55.24 L822.79,55.24 L822.79,89.8 L860.32,89.8 L860.32,206.44 L822.79,206.44 L822.79,241 L940.78,241 L943.75,206.44 L904.6,206.44 L904.6,89.8 Z M1074.7,86.02 C1000.99,82.24 974.26,109.51 974.26,135.16 C974.26,172.42 1037.98,180.79 1037.98,196.72 C1037.98,206.71 1023.13,209.14 978.04,206.44 L976.42,244.24 C1060.66,245.59 1084.15,221.29 1084.15,196.72 C1084.15,158.92 1019.35,146.5 1019.35,130.84 C1019.35,122.2 1035.55,119.77 1076.05,123.82 L1074.7,86.02 Z" id="APIs" fill="#FFFFFF"></path>
        </g>
    </g>
</svg>