<?xml version="1.0" encoding="UTF-8"?>
<svg width="54px" height="62px" viewBox="0 0 54 62" version="1.1" xmlns="http://www.w3.org/2000/svg" xmlns:xlink="http://www.w3.org/1999/xlink">
    <!-- Generator: Sketch 43.2 (39069) - http://www.bohemiancoding.com/sketch -->
    <title>Group 12</title>
    <desc>Created with Sketch.</desc>
    <defs>
        <polygon id="path-1" points="42.258 49.94 0.877 49.94 0.877 0.065 42.258 0.065"></polygon>
    </defs>
    <g id="Page-1" stroke="none" stroke-width="1" fill="none" fill-rule="evenodd">
        <g id="Group-12">
            <g id="Group-278" transform="translate(11.000000, 12.000000)">
                <mask id="mask-2" fill="white">
                    <use xlink:href="#path-1"></use>
                </mask>
                <g id="Clip-276"></g>
                <path d="M40.329,0.566 C41.118,0.566 41.759,1.207 41.759,1.994 L41.759,48.071 C41.759,48.859 41.116,49.5 40.326,49.5 L2.806,49.5 C2.017,49.5 1.376,48.859 1.376,48.071 L1.376,1.994 C1.376,1.207 2.019,0.566 2.809,0.566 L40.329,0.566" id="Fill-275" fill="#EDF0F0" mask="url(#mask-2)"></path>
                <path d="M2.809,1.065 C2.294,1.065 1.877,1.482 1.877,1.994 L1.877,48.071 C1.877,48.583 2.294,49 2.806,49 L40.327,49 C40.84,49 41.258,48.583 41.258,48.071 L41.258,1.994 C41.258,1.482 40.841,1.065 40.329,1.065 L2.809,1.065 Z M40.327,50 L2.806,50 C1.742,50 0.877,49.135 0.877,48.071 L0.877,1.994 C0.877,0.931 1.744,0.065 2.809,0.065 L40.329,0.065 C41.393,0.065 42.258,0.931 42.258,1.994 L42.258,48.071 C42.258,49.135 41.392,50 40.327,50 L40.327,50 Z" id="Fill-277" fill="#5C6165" mask="url(#mask-2)"></path>
            </g>
            <path d="M48.223,48.936 L48.223,16.526 C48.223,15.698 47.548,15.023 46.718,15.023 L18.414,15.023 C17.584,15.023 16.912,15.698 16.912,16.526 L16.912,55.5 C16.912,56.328 17.584,57.002 18.414,57.002 L39.767,57.002 L48.223,48.936" id="Fill-279" fill="#FFFFFF"></path>
            <path d="M18.415,15.522 C17.862,15.522 17.413,15.973 17.413,16.525 L17.413,55.5 C17.413,56.053 17.862,56.502 18.415,56.502 L39.566,56.502 L47.722,48.723 L47.722,16.525 C47.722,15.973 47.272,15.522 46.718,15.522 L18.415,15.522 Z M39.766,57.502 L18.415,57.502 C17.311,57.502 16.413,56.603 16.413,55.5 L16.413,16.525 C16.413,15.421 17.311,14.522 18.415,14.522 L46.718,14.522 C47.823,14.522 48.722,15.421 48.722,16.525 L48.722,48.937 C48.722,49.073 48.667,49.204 48.567,49.298 L40.111,57.363 C40.018,57.452 39.895,57.502 39.766,57.502 L39.766,57.502 Z" id="Fill-280" fill="#5C6165"></path>
            <path d="M41.84,25.276 L23.625,25.276 C23.349,25.276 23.125,25.053 23.125,24.776 C23.125,24.5 23.349,24.276 23.625,24.276 L41.84,24.276 C42.117,24.276 42.34,24.5 42.34,24.776 C42.34,25.053 42.117,25.276 41.84,25.276" id="Fill-281" fill="#5C6165"></path>
            <path d="M41.84,31.477 L23.625,31.477 C23.349,31.477 23.125,31.253 23.125,30.977 C23.125,30.7 23.349,30.477 23.625,30.477 L41.84,30.477 C42.117,30.477 42.34,30.7 42.34,30.977 C42.34,31.253 42.117,31.477 41.84,31.477" id="Fill-282" fill="#5C6165"></path>
            <path d="M41.84,37.678 L23.625,37.678 C23.349,37.678 23.125,37.454 23.125,37.178 C23.125,36.901 23.349,36.678 23.625,36.678 L41.84,36.678 C42.117,36.678 42.34,36.901 42.34,37.178 C42.34,37.454 42.117,37.678 41.84,37.678" id="Fill-283" fill="#5C6165"></path>
            <path d="M41.84,43.879 L23.625,43.879 C23.349,43.879 23.125,43.655 23.125,43.379 C23.125,43.102 23.349,42.879 23.625,42.879 L41.84,42.879 C42.117,42.879 42.34,43.102 42.34,43.379 C42.34,43.655 42.117,43.879 41.84,43.879" id="Fill-284" fill="#5C6165"></path>
            <path d="M39.4,57.502 C39.124,57.502 38.9,57.278 38.9,57.002 L38.9,50.508 C38.891,49.457 39.753,48.558 40.784,48.548 L47.996,48.548 C48.272,48.548 48.496,48.771 48.496,49.048 C48.496,49.324 48.272,49.548 47.996,49.548 L40.789,49.548 C40.313,49.552 39.895,49.999 39.9,50.504 L39.9,57.002 C39.9,57.278 39.676,57.502 39.4,57.502" id="Fill-285" fill="#5C6165"></path>
            <g id="Group-11">
                <g id="Group-10">
                    <g id="Group-9" transform="translate(0.000000, 0.830270)">
                        <path d="M21.3774444,17.3857326 C20.2876577,20.8803192 16.5796943,22.8204435 13.1011154,21.7225306 C9.62169625,20.6246178 7.68663171,16.9004906 8.77893909,13.405904 C9.87208671,9.91216127 13.5800501,7.97119311 17.0594693,9.06741817 C20.5388884,10.1670188 22.470592,13.891146 21.3774444,17.3857326 Z M26.5297743,15.9376016 C26.5490997,15.5004618 26.5499399,15.063322 26.5230524,14.6304017 L29.6941047,12.4058834 C29.4470752,11.1948881 29.0462824,10.0328389 28.5202944,8.9307065 L24.6745322,9.07585716 C24.4375855,8.71044881 24.1670294,8.35769894 23.8855502,8.02182706 L25.1442244,4.35761672 C24.2602956,3.54072229 23.2654557,2.81750067 22.1781897,2.22339563 L19.1306521,4.62682056 C18.9264747,4.54918183 18.7281789,4.46732361 18.5240014,4.39896778 C18.3147825,4.33483144 18.1030429,4.28841698 17.8879424,4.23778303 L16.763706,0.513655843 C15.5310792,0.373568576 14.3085351,0.398041652 13.1078373,0.557538602 L12.0541808,4.28335359 C11.6315418,4.40234337 11.2173053,4.53314775 10.8123113,4.69939589 L7.73872637,2.37107799 C6.68002845,2.96855863 5.69022991,3.69346804 4.80294023,4.54327454 L6.13303452,8.19482639 C5.86247839,8.53069828 5.61208792,8.88682374 5.37430101,9.25898329 L1.51425477,9.18809576 C1.26638502,9.74338143 1.03532,10.3062622 0.847107036,10.9028989 C0.66393549,11.4953162 0.526136713,12.0936407 0.420266921,12.6902775 L3.6266092,14.854035 C3.608124,15.2920187 3.60728376,15.7266268 3.63417133,16.1612349 L0.462278743,18.3865971 C0.710988731,19.592529 1.11514246,20.7596416 1.64113048,21.861774 L5.48269151,21.7157794 C5.71963819,22.0811878 5.99019433,22.4347816 6.26747235,22.7698095 L5.01299934,26.4323321 C5.90112926,27.2517582 6.89176803,27.9741359 7.98323518,28.5690849 L11.0265716,26.1656599 C11.230749,26.240767 11.4290448,26.3251569 11.6374235,26.3935127 C11.8474826,26.4559613 12.0499796,26.5032196 12.2650801,26.5538536 L13.3935177,30.2779808 C14.6261445,30.4189119 15.85373,30.3944388 17.0493864,30.2349419 L18.0980015,26.508283 C18.5248416,26.3901371 18.9441196,26.2601766 19.3440722,26.0930846 L22.4184973,28.4205586 C23.4771953,27.8188585 24.471195,27.0990125 25.3584847,26.249206 L24.0283904,22.5976541 C24.2905441,22.2584066 24.549337,21.9056568 24.7829227,21.5326533 L28.6429689,21.6043847 C28.8950399,21.0490991 29.1269451,20.4819988 29.3101167,19.8895816 C29.4983296,19.2946326 29.631087,18.6988398 29.741158,18.1030469 L26.5297743,15.9376016 L26.5297743,15.9376016 Z" id="Fill-511" fill="#3F99C8"></path>
                        <path d="M15.0857539,9.18387626 C12.4549735,9.18387626 10.0090452,10.8834893 9.17973188,13.5333328 C8.15800436,16.8000666 9.97375532,20.2938093 13.2271508,21.3208346 C14.8034344,21.8187351 16.4780257,21.6676772 17.9408773,20.9022606 C19.4054094,20.1351562 20.4834328,18.8414587 20.9766516,17.2591477 L20.9774918,17.2591477 C21.9992193,13.9924139 20.1851489,10.4978273 16.9334338,9.46911419 C16.3200612,9.27670517 15.697446,9.18387626 15.0857539,9.18387626 Z M15.0891148,22.4533473 C14.3816357,22.4533473 13.6691152,22.3444843 12.9750799,22.1250705 C9.27972001,20.9596457 7.21777977,16.9899439 8.37814631,13.280163 C9.53851284,9.5703821 13.4876241,7.50198515 17.1855047,8.66403435 C20.8791842,9.83283475 22.9394439,13.8016927 21.7782372,17.5114736 C21.2177994,19.3089789 19.9935749,20.7790513 18.3290665,21.6507992 C17.3115402,22.1841435 16.2049488,22.4533473 15.0891148,22.4533473 Z M13.714488,29.8880993 C14.6992451,29.9792404 15.7083691,29.9674258 16.720854,29.8509678 L17.6938478,26.3935127 C17.7341791,26.2508938 17.8450904,26.140343 17.9870903,26.1006797 C18.4845103,25.963968 18.8533741,25.8416026 19.1827468,25.7032032 C19.3188651,25.6466619 19.47851,25.6652277 19.5969833,25.7555249 L22.4504263,27.9159069 C23.337716,27.3910016 24.1493844,26.7918331 24.8686268,26.1310601 L23.6343195,22.7436487 C23.5847455,22.6077809 23.6074319,22.4550351 23.696497,22.3402648 C24.0090649,21.9351932 24.2342483,21.6170432 24.4266624,21.30902 C24.5048044,21.1824351 24.6224375,21.1064842 24.7904848,21.1107037 L28.373253,21.1765278 C28.6001169,20.6600615 28.7723653,20.2060438 28.9084836,19.7638406 C29.0488031,19.3207935 29.1672765,18.8498977 29.2765072,18.2971438 L26.2961885,16.2878198 C26.173514,16.2059615 26.1029341,16.0667182 26.1104963,15.9190358 C26.130662,15.4633302 26.1281412,15.0515074 26.1037744,14.6574065 C26.095372,14.510568 26.1625909,14.3696369 26.2827447,14.284403 L29.2244125,12.2202256 C29.0067913,11.2548049 28.6833003,10.2961354 28.2581406,9.36193899 L24.6904967,9.49865066 C24.545976,9.49865066 24.4031358,9.43029483 24.3224731,9.30624165 C24.1149347,8.98640385 23.867065,8.65475146 23.5637396,8.2944065 C23.4679527,8.18048011 23.4393846,8.02435875 23.4881183,7.88427149 L24.6568872,4.4833577 C23.9040354,3.81414563 23.0856451,3.22594788 22.2176808,2.72889125 L19.3894449,4.95931685 C19.2743325,5.05045796 19.1180486,5.07324324 18.9819303,5.02176539 L18.8038001,4.95256565 C18.6676818,4.8994 18.5315635,4.84623435 18.3920843,4.7998199 C18.2391612,4.75256154 18.0761554,4.71458608 17.9097886,4.67661061 L17.7913152,4.64791804 C17.6459543,4.61331817 17.5291614,4.50361128 17.4854692,4.36099231 L16.4427357,0.904381175 C15.4596591,0.813240061 14.4522156,0.825054649 13.4355295,0.942356639 L12.4583345,4.39812388 C12.4180031,4.53989894 12.3079322,4.64960584 12.1667724,4.6892691 C11.6794353,4.82598077 11.3114117,4.95003396 10.971116,5.09012122 C10.8358379,5.14497467 10.6778735,5.12640889 10.5594001,5.03611168 L7.70763762,2.87572971 C6.83295148,3.39050823 6.02296355,3.98967666 5.29279807,4.66142043 L6.52710541,8.04967573 C6.57835984,8.1889191 6.55231251,8.34419655 6.45904626,8.45981074 C6.21537769,8.76277056 5.97591031,9.09948634 5.72720032,9.48767997 C5.64737786,9.61088926 5.50453766,9.6767134 5.36673888,9.68093289 L1.78649138,9.61426485 C1.55458612,10.1476092 1.3856986,10.5915001 1.24705958,11.0303277 C1.10421939,11.4944723 0.984905813,11.9763387 0.884077439,12.4944928 L3.86187541,14.5038168 C3.98286945,14.586519 4.05260908,14.7257623 4.04672742,14.8726008 C4.02656175,15.3299942 4.02908246,15.7426609 4.05344932,16.135074 C4.06269192,16.2819125 3.995473,16.4228436 3.87447895,16.5072335 L0.932811153,18.571411 C1.15043239,19.5343 1.47644413,20.4929695 1.90412449,21.4296976 L5.46756726,21.2938298 C5.61124769,21.300581 5.75492812,21.3613418 5.83559082,21.4862388 C6.03472686,21.7959499 6.28175637,22.1276022 6.59096338,22.5006057 C6.68422963,22.6136882 6.71195743,22.7672778 6.66490419,22.9065212 L5.50117671,26.3065911 C6.25906999,26.9800227 7.07914076,27.5699082 7.94374406,28.0644331 L10.7669385,25.8348514 C10.8803704,25.7437103 11.0341337,25.7192373 11.1710923,25.7698712 L11.4004768,25.8567928 C11.5214709,25.9040512 11.6424649,25.9513095 11.7676601,25.9918167 C11.9516719,26.0466701 12.1424056,26.0922407 12.3423819,26.1386552 C12.4877428,26.173255 12.6230208,26.2880253 12.6667131,26.4314882 L13.714488,29.8880993 Z M15.0302983,30.7919154 C14.4631387,30.7919154 13.9010205,30.7606911 13.3464644,30.6982426 C13.1800976,30.6788329 13.0406183,30.5615309 12.9918846,30.40119 L11.9331867,26.9082912 C11.7911868,26.8736914 11.6567489,26.8382476 11.5197904,26.7985843 C11.3685478,26.7496382 11.23411,26.6973164 11.0996722,26.6449947 L8.24286824,28.9007373 C8.11179135,29.0070686 7.92946004,29.0205709 7.7832589,28.9404005 C6.69095152,28.3446077 5.66334235,27.605352 4.72899942,26.742887 C4.6063249,26.6289606 4.5626326,26.4534296 4.61640774,26.2956204 L5.793579,22.8550434 C5.59276249,22.6052492 5.41799331,22.3706452 5.26507027,22.146168 L1.65625473,22.2837236 C1.49660981,22.2786602 1.33528441,22.1942703 1.26218384,22.0440562 C0.706787549,20.8803192 0.298432636,19.6777629 0.0514031209,18.470987 C0.0169534266,18.3064267 0.0841723423,18.1368029 0.22197112,18.0397545 L3.2022898,15.9494162 C3.19136672,15.6700855 3.19052649,15.3806281 3.19892885,15.0734488 L0.185840952,13.0404956 C0.0480421751,12.9468228 -0.0233779228,12.7805747 0.00687058926,12.6160143 C0.122823219,11.9594607 0.266503651,11.3577606 0.445474014,10.7780019 C0.616042013,10.2370625 0.827781598,9.69443528 1.13110695,9.01425252 C1.20084658,8.86150676 1.37477552,8.77796074 1.5218169,8.76530226 L5.14911764,8.83281419 C5.31968564,8.57542493 5.48773293,8.33828926 5.65746069,8.11803157 L4.4080291,4.6884252 C4.35089302,4.53145995 4.39122437,4.35424112 4.51305865,4.23778303 C5.4087507,3.38038144 6.42459657,2.62846725 7.53286844,2.00398184 C7.67822935,1.92212361 7.85972042,1.9347821 7.99163754,2.03436221 L10.8770095,4.22090504 C11.1282402,4.12470054 11.3979561,4.03524722 11.7130448,3.94241831 L12.7028433,0.441924411 C12.7490563,0.280739663 12.8868551,0.160905976 13.0523817,0.138964597 C14.3244996,-0.0298152437 15.5898957,-0.0450054294 16.8115995,0.0942379392 C16.9779663,0.112803722 17.1174456,0.230105711 17.1661793,0.39044656 L18.2189956,3.88250146 C18.362676,3.91625743 18.5055162,3.9525451 18.6466759,3.99558396 C18.7903564,4.04368621 18.9239539,4.09432016 19.0583918,4.14748581 L21.9193969,1.89174324 C22.0521542,1.78794364 22.2328051,1.77444125 22.3798465,1.85292388 C23.4771953,2.45378011 24.503124,3.19134802 25.4282243,4.04621791 C25.5508988,4.1601443 25.5954313,4.33651924 25.540816,4.49517229 L24.3594435,7.93574934 C24.5585796,8.18132401 24.7350292,8.41592799 24.8929937,8.64631247 L28.5051701,8.5087569 C28.6748979,8.5087569 28.8261405,8.59736631 28.899241,8.74842427 C29.4529569,9.90794178 29.8579508,11.1104981 30.1058206,12.3206496 C30.13943,12.4852099 30.0722111,12.6556776 29.9344123,12.7518821 L26.9549339,14.8422204 C26.9666972,15.122395 26.9675375,15.4118524 26.9582949,15.7190317 L29.9755839,17.7528288 C30.1150632,17.8465016 30.185643,18.0135936 30.1545543,18.1798418 C30.0234774,18.8870293 29.8823177,19.4701637 29.7100692,20.0170103 C29.5420219,20.5621692 29.3235604,21.1225183 29.0252765,21.7790719 C28.9555369,21.9318176 28.7891701,22.0195831 28.6354068,22.0254904 L25.0089463,21.9588224 C24.8644256,22.1790801 24.6997393,22.4086207 24.5022837,22.6710733 L25.7533958,26.1040553 C25.8113721,26.2618644 25.7702005,26.4390833 25.6483662,26.5546975 C24.7686387,27.396065 23.7519526,28.1479792 22.6260357,28.7884987 C22.4823553,28.8712008 22.3008642,28.8593862 22.1664264,28.7581183 L19.2802142,26.5724193 C19.0323444,26.6669361 18.7609481,26.7572333 18.4391375,26.8500622 L17.4535402,30.3488683 C17.4081674,30.5117408 17.2712089,30.6315745 17.104842,30.6535159 C16.4108067,30.7455009 15.7167714,30.7919154 15.0302983,30.7919154 L15.0302983,30.7919154 Z" id="Fill-512" fill="#5C6165"></path>
                        <path d="M15.0798722,7.09691353 C11.2206662,7.09691353 7.76057252,9.83030305 6.97747215,13.7696245 C6.54559062,15.942665 6.98167333,18.1553687 8.20673807,20.0001324 C9.43264305,21.8440521 11.2996484,23.0989302 13.4632573,23.5326944 C15.6251857,23.9656147 17.8308063,23.5284749 19.666723,22.2989138 C21.5026396,21.0693526 22.7503907,19.1967403 23.1805918,17.0236999 C24.0712424,12.535 21.1631841,8.15516313 16.6981676,7.25725438 C16.1545346,7.14839138 15.6134223,7.09691353 15.0798722,7.09691353 Z M15.1008781,24.5403101 C14.5026298,24.5403101 13.9001802,24.4803932 13.2994112,24.3605595 C10.9148201,23.8820687 8.85876155,22.5006057 7.50766135,20.4684964 C6.15824161,18.4363871 5.67762637,15.9992062 6.1532002,13.6050642 C7.13459637,8.66319045 11.9432695,5.44624669 16.8620137,6.43023316 C21.7824383,7.41843913 24.9862599,12.2438548 24.0040235,17.1882602 C23.5309704,19.5824022 22.1555033,21.6465797 20.1330542,23.0010379 C18.6197884,24.0154048 16.8796587,24.5403101 15.1008781,24.5403101 L15.1008781,24.5403101 Z" id="Fill-515" fill="#5C6165"></path>
                    </g>
                    <ellipse id="Oval" fill="#FFFFFF" cx="15.0694444" cy="16" rx="6.45833333" ry="6.48648649"></ellipse>
                </g>
            </g>
        </g>
    </g>
</svg>