<?xml version="1.0" encoding="UTF-8"?>
<svg width="63px" height="55px" viewBox="0 0 63 55" version="1.1" xmlns="http://www.w3.org/2000/svg" xmlns:xlink="http://www.w3.org/1999/xlink">
    <!-- Generator: Sketch 43.2 (39069) - http://www.bohemiancoding.com/sketch -->
    <title>Group 2</title>
    <desc>Created with Sketch.</desc>
    <defs></defs>
    <g id="Page-1" stroke="none" stroke-width="1" fill="none" fill-rule="evenodd">
        <g id="Group-2">
            <path d="M2.736,8.477 C2.152,8.477 1.677,8.952 1.677,9.536 L1.677,45.914 C1.677,46.498 2.152,46.974 2.736,46.974 L54.744,46.974 C55.327,46.974 55.801,46.498 55.801,45.914 L55.801,9.536 C55.801,8.952 55.327,8.477 54.744,8.477 L2.736,8.477 Z M54.744,47.974 L2.736,47.974 C1.601,47.974 0.677,47.05 0.677,45.914 L0.677,9.536 C0.677,8.401 1.601,7.477 2.736,7.477 L54.744,7.477 C55.879,7.477 56.801,8.401 56.801,9.536 L56.801,45.914 C56.801,47.05 55.879,47.974 54.744,47.974 L54.744,47.974 Z" id="Fill-425" fill="#5C6165"></path>
            <path d="M1.177,9.536 C1.177,8.675 1.875,7.977 2.736,7.977 L54.744,7.977 C55.605,7.977 56.302,8.675 56.302,9.536 L56.302,16.525 L1.177,16.525 L1.177,9.536" id="Fill-426" fill="#3F99C8"></path>
            <path d="M1.677,16.024 L55.801,16.024 L55.801,9.536 C55.801,8.952 55.327,8.477 54.744,8.477 L2.736,8.477 C2.152,8.477 1.677,8.952 1.677,9.536 L1.677,16.024 Z M56.301,17.024 L1.177,17.024 C0.9,17.024 0.677,16.801 0.677,16.524 L0.677,9.536 C0.677,8.401 1.601,7.477 2.736,7.477 L54.744,7.477 C55.879,7.477 56.801,8.401 56.801,9.536 L56.801,16.524 C56.801,16.801 56.578,17.024 56.301,17.024 L56.301,17.024 Z" id="Fill-427" fill="#5C6165"></path>
            <path d="M5.854,47.474 L5.854,51.969 C5.854,52.83 6.552,53.528 7.413,53.528 L60.199,53.528 C61.06,53.528 61.757,52.83 61.757,51.969 L61.757,15.591 C61.757,14.73 61.06,14.032 60.199,14.032 L56.302,14.032 L56.302,45.914 C56.302,46.775 55.605,47.474 54.744,47.474 L5.854,47.474" id="Fill-428" fill="#EDF0F0"></path>
            <path d="M6.354,47.974 L6.354,51.969 C6.354,52.553 6.829,53.028 7.413,53.028 L60.199,53.028 C60.782,53.028 61.257,52.553 61.257,51.969 L61.257,15.591 C61.257,15.007 60.782,14.532 60.199,14.532 L56.801,14.532 L56.801,45.914 C56.801,47.05 55.879,47.974 54.744,47.974 L6.354,47.974 Z M60.199,54.028 L7.413,54.028 C6.277,54.028 5.354,53.105 5.354,51.969 L5.354,47.474 C5.354,47.197 5.577,46.974 5.854,46.974 L54.744,46.974 C55.327,46.974 55.801,46.498 55.801,45.914 L55.801,14.032 C55.801,13.756 56.025,13.532 56.301,13.532 L60.199,13.532 C61.334,13.532 62.257,14.456 62.257,15.591 L62.257,51.969 C62.257,53.105 61.334,54.028 60.199,54.028 L60.199,54.028 Z" id="Fill-429" fill="#5C6165"></path>
            <path d="M27.961,41.435 L16.657,41.435 L16.657,40.271 L22.622,33.519 C23.722,32.277 24.499,31.236 24.954,30.399 C25.408,29.562 25.635,28.759 25.635,27.992 C25.635,26.858 25.316,25.949 24.678,25.266 C24.041,24.582 23.138,24.24 21.971,24.24 C20.587,24.24 19.537,24.624 18.82,25.391 C18.103,26.158 17.745,27.184 17.745,28.467 L16.357,28.467 L16.332,28.392 C16.29,26.875 16.782,25.591 17.807,24.54 C18.833,23.49 20.22,22.965 21.971,22.965 C23.539,22.965 24.793,23.415 25.735,24.315 C26.677,25.216 27.148,26.425 27.148,27.941 C27.148,28.942 26.834,29.957 26.204,30.986 C25.575,32.017 24.697,33.165 23.572,34.432 L18.557,40.097 L18.583,40.159 L27.961,40.159 L27.961,41.435" id="Fill-430" fill="#5C6165"></path>
            <path d="M40.09,27.904 C40.09,26.853 39.722,25.981 38.984,25.284 C38.246,24.589 37.327,24.24 36.227,24.24 C35.101,24.24 34.18,24.574 33.463,25.24 C32.746,25.908 32.388,26.796 32.388,27.904 C32.388,28.98 32.748,29.841 33.469,30.486 C34.19,31.133 35.118,31.456 36.252,31.456 C37.36,31.456 38.277,31.133 39.003,30.486 C39.728,29.841 40.09,28.98 40.09,27.904 Z M40.603,36.614 C40.603,35.466 40.186,34.531 39.353,33.812 C38.519,33.091 37.477,32.731 36.227,32.731 C34.959,32.731 33.917,33.091 33.1,33.812 C32.283,34.531 31.875,35.466 31.875,36.614 C31.875,37.805 32.279,38.736 33.088,39.41 C33.897,40.085 34.951,40.422 36.252,40.422 C37.519,40.422 38.561,40.083 39.378,39.404 C40.195,38.726 40.603,37.796 40.603,36.614 Z M41.591,27.917 C41.591,28.9 41.304,29.761 40.729,30.499 C40.153,31.236 39.386,31.772 38.427,32.106 C39.536,32.448 40.426,33.017 41.097,33.813 C41.768,34.609 42.104,35.541 42.104,36.607 C42.104,38.242 41.558,39.498 40.466,40.378 C39.374,41.258 37.969,41.697 36.252,41.697 C34.501,41.697 33.086,41.26 32.006,40.384 C30.926,39.509 30.387,38.25 30.387,36.607 C30.387,35.532 30.716,34.597 31.375,33.801 C32.033,33.004 32.917,32.435 34.026,32.094 C33.067,31.76 32.306,31.227 31.744,30.493 C31.181,29.759 30.9,28.9 30.9,27.917 C30.9,26.35 31.394,25.133 32.381,24.266 C33.369,23.398 34.651,22.965 36.227,22.965 C37.794,22.965 39.08,23.4 40.085,24.271 C41.089,25.143 41.591,26.358 41.591,27.917 L41.591,27.917 Z" id="Fill-431" fill="#5C6165"></path>
            <path d="M15.869,1.315 L13.538,1.315 C12.951,1.315 12.476,1.855 12.476,2.52 L12.476,10.364 C12.476,11.032 12.951,11.571 13.538,11.571 L15.869,11.571 C16.457,11.571 16.933,11.032 16.933,10.364 L16.933,2.52 C16.933,1.855 16.457,1.315 15.869,1.315" id="Fill-432" fill="#EDF0F0"></path>
            <path d="M13.538,1.814 C13.233,1.814 12.976,2.138 12.976,2.52 L12.976,10.364 C12.976,10.754 13.228,11.07 13.538,11.07 L15.869,11.07 C16.18,11.07 16.433,10.754 16.433,10.364 L16.433,2.52 C16.433,2.138 16.175,1.814 15.869,1.814 L13.538,1.814 Z M15.869,12.07 L13.538,12.07 C12.676,12.07 11.976,11.305 11.976,10.364 L11.976,2.52 C11.976,1.58 12.676,0.814 13.538,0.814 L15.869,0.814 C16.732,0.814 17.433,1.58 17.433,2.52 L17.433,10.364 C17.433,11.305 16.732,12.07 15.869,12.07 L15.869,12.07 Z" id="Fill-433" fill="#5C6165"></path>
            <path d="M43.359,1.315 L41.029,1.315 C40.442,1.315 39.966,1.855 39.966,2.52 L39.966,10.364 C39.966,11.032 40.442,11.571 41.029,11.571 L43.359,11.571 C43.947,11.571 44.424,11.032 44.424,10.364 L44.424,2.52 C44.424,1.855 43.947,1.315 43.359,1.315" id="Fill-434" fill="#EDF0F0"></path>
            <path d="M41.029,1.814 C40.724,1.814 40.465,2.138 40.465,2.52 L40.465,10.364 C40.465,10.754 40.718,11.07 41.029,11.07 L43.359,11.07 C43.671,11.07 43.924,10.754 43.924,10.364 L43.924,2.52 C43.924,2.138 43.666,1.814 43.359,1.814 L41.029,1.814 Z M43.359,12.07 L41.029,12.07 C40.167,12.07 39.465,11.305 39.465,10.364 L39.465,2.52 C39.465,1.58 40.167,0.814 41.029,0.814 L43.359,0.814 C44.222,0.814 44.924,1.58 44.924,2.52 L44.924,10.364 C44.924,11.305 44.222,12.07 43.359,12.07 L43.359,12.07 Z" id="Fill-435" fill="#5C6165"></path>
        </g>
    </g>
</svg>