<?xml version="1.0" encoding="UTF-8"?>
<svg width="59px" height="59px" viewBox="0 0 59 59" version="1.1" xmlns="http://www.w3.org/2000/svg" xmlns:xlink="http://www.w3.org/1999/xlink">
    <!-- Generator: Sketch 43.2 (39069) - http://www.bohemiancoding.com/sketch -->
    <title>Group 4</title>
    <desc>Created with Sketch.</desc>
    <defs></defs>
    <g id="Page-1" stroke="none" stroke-width="1" fill="none" fill-rule="evenodd">
        <g id="Group-4">
            <path d="M12.752,45.328 L6.839,45.328 C6.563,45.328 6.339,45.105 6.339,44.828 C6.339,44.552 6.563,44.328 6.839,44.328 L12.752,44.328 C13.028,44.328 13.252,44.552 13.252,44.828 C13.252,45.105 13.028,45.328 12.752,45.328" id="Fill-256" fill="#5C6165"></path>
            <path d="M23.584,45.328 L19.036,45.328 C18.76,45.328 18.536,45.105 18.536,44.828 C18.536,44.552 18.76,44.328 19.036,44.328 L23.584,44.328 C24.062,44.328 24.451,43.939 24.451,43.46 L24.451,29.356 C24.451,29.08 24.675,28.856 24.951,28.856 C25.228,28.856 25.451,29.08 25.451,29.356 L25.451,43.46 C25.451,44.49 24.614,45.328 23.584,45.328" id="Fill-257" fill="#5C6165"></path>
            <path d="M33.102,36.953 L45.644,36.953 C52.465,36.953 57.994,31.424 57.994,24.603 C57.994,17.785 52.465,12.255 45.644,12.255 C44.099,12.255 42.627,12.548 41.267,13.066 C39.825,6.336 33.85,1.288 26.692,1.288 C19.815,1.288 14.041,5.952 12.319,12.284 C5.769,12.588 0.549,17.979 0.549,24.603 C0.549,31.23 5.772,36.62 12.324,36.924 L24.951,36.924 L24.951,29.356 L33.102,29.356 L33.102,36.953" id="Fill-258" fill="#EDF0F0"></path>
            <path d="M33.602,36.453 L45.644,36.453 C52.178,36.453 57.494,31.137 57.494,24.603 C57.494,18.07 52.178,12.755 45.644,12.755 C44.215,12.755 42.802,13.017 41.445,13.533 C41.309,13.585 41.157,13.575 41.028,13.505 C40.9,13.435 40.809,13.313 40.778,13.171 C39.365,6.575 33.44,1.788 26.691,1.788 C20.215,1.788 14.503,6.158 12.801,12.415 C12.744,12.625 12.559,12.773 12.342,12.783 C6.009,13.077 1.049,18.269 1.049,24.603 C1.049,30.937 6.012,36.13 12.347,36.424 L24.451,36.424 L24.451,29.356 C24.451,29.08 24.675,28.856 24.951,28.856 L33.102,28.856 C33.378,28.856 33.602,29.08 33.602,29.356 L33.602,36.453 Z M45.644,37.453 L33.102,37.453 C32.825,37.453 32.602,37.229 32.602,36.953 L32.602,29.856 L25.451,29.856 L25.451,36.924 C25.451,37.2 25.228,37.424 24.951,37.424 L12.324,37.424 C5.431,37.105 0.049,31.473 0.049,24.603 C0.049,17.855 5.241,12.301 11.935,11.806 C13.868,5.3 19.885,0.788 26.691,0.788 C33.718,0.788 39.91,5.641 41.626,12.407 C42.932,11.974 44.281,11.755 45.644,11.755 C52.729,11.755 58.494,17.519 58.494,24.603 C58.494,31.688 52.729,37.453 45.644,37.453 L45.644,37.453 Z" id="Fill-259" fill="#5C6165"></path>
            <path d="M17.483,13.706 C17.439,13.706 17.395,13.701 17.351,13.688 C17.085,13.616 16.927,13.341 17,13.075 C18.173,8.759 22.114,5.745 26.582,5.745 C26.858,5.745 27.082,5.968 27.082,6.245 C27.082,6.521 26.858,6.745 26.582,6.745 C22.564,6.745 19.02,9.456 17.964,13.337 C17.904,13.56 17.702,13.706 17.483,13.706" id="Fill-260" fill="#5C6165"></path>
            <path d="M39.015,29.856 L19.527,29.856 C19.251,29.856 19.027,29.632 19.027,29.356 C19.027,29.08 19.251,28.856 19.527,28.856 L39.015,28.856 C39.292,28.856 39.515,29.08 39.515,29.356 C39.515,29.632 39.292,29.856 39.015,29.856" id="Fill-261" fill="#5C6165"></path>
            <path d="M6.839,44.828 C6.839,46.563 5.432,47.97 3.697,47.97 C1.961,47.97 0.555,46.563 0.555,44.828 C0.555,43.093 1.961,41.686 3.697,41.686 C5.432,41.686 6.839,43.093 6.839,44.828" id="Fill-262" fill="#FFFFFF"></path>
            <path d="M3.697,42.186 C2.24,42.186 1.055,43.371 1.055,44.828 C1.055,46.285 2.24,47.47 3.697,47.47 C5.154,47.47 6.339,46.285 6.339,44.828 C6.339,43.371 5.154,42.186 3.697,42.186 Z M3.697,48.47 C1.689,48.47 0.055,46.836 0.055,44.828 C0.055,42.82 1.689,41.186 3.697,41.186 C5.705,41.186 7.339,42.82 7.339,44.828 C7.339,46.836 5.705,48.47 3.697,48.47 L3.697,48.47 Z" id="Fill-263" fill="#5C6165"></path>
            <path d="M19.037,44.828 C19.037,46.563 17.63,47.97 15.895,47.97 C14.16,47.97 12.753,46.563 12.753,44.828 C12.753,43.093 14.16,41.686 15.895,41.686 C17.63,41.686 19.037,43.093 19.037,44.828" id="Fill-264" fill="#FFFFFF"></path>
            <path d="M15.895,42.186 C14.438,42.186 13.253,43.371 13.253,44.828 C13.253,46.285 14.438,47.47 15.895,47.47 C17.352,47.47 18.537,46.285 18.537,44.828 C18.537,43.371 17.352,42.186 15.895,42.186 Z M15.895,48.47 C13.887,48.47 12.253,46.836 12.253,44.828 C12.253,42.82 13.887,41.186 15.895,41.186 C17.903,41.186 19.537,42.82 19.537,44.828 C19.537,46.836 17.903,48.47 15.895,48.47 L15.895,48.47 Z" id="Fill-265" fill="#5C6165"></path>
            <path d="M51.213,52.43 L45.3,52.43 C45.024,52.43 44.8,52.206 44.8,51.93 C44.8,51.653 45.024,51.43 45.3,51.43 L51.213,51.43 C51.49,51.43 51.713,51.653 51.713,51.93 C51.713,52.206 51.49,52.43 51.213,52.43" id="Fill-266" fill="#5C6165"></path>
            <path d="M39.016,52.43 L34.468,52.43 C33.439,52.43 32.602,51.592 32.602,50.562 L32.602,29.356 C32.602,29.08 32.825,28.856 33.102,28.856 C33.378,28.856 33.602,29.08 33.602,29.356 L33.602,50.562 C33.602,51.04 33.99,51.43 34.468,51.43 L39.016,51.43 C39.293,51.43 39.516,51.653 39.516,51.93 C39.516,52.206 39.293,52.43 39.016,52.43" id="Fill-267" fill="#5C6165"></path>
            <path d="M51.214,51.929 C51.214,53.665 52.621,55.072 54.356,55.072 C56.091,55.072 57.498,53.665 57.498,51.929 C57.498,50.194 56.091,48.787 54.356,48.787 C52.621,48.787 51.214,50.194 51.214,51.929" id="Fill-268" fill="#3F99C8"></path>
            <path d="M54.356,49.288 C52.899,49.288 51.713,50.473 51.713,51.93 C51.713,53.387 52.899,54.571 54.356,54.571 C55.813,54.571 56.998,53.387 56.998,51.93 C56.998,50.473 55.813,49.288 54.356,49.288 Z M54.356,55.571 C52.347,55.571 50.713,53.937 50.713,51.93 C50.713,49.921 52.347,48.288 54.356,48.288 C56.364,48.288 57.998,49.921 57.998,51.93 C57.998,53.937 56.364,55.571 54.356,55.571 L54.356,55.571 Z" id="Fill-269" fill="#5C6165"></path>
            <path d="M39.015,51.929 C39.015,53.665 40.422,55.072 42.158,55.072 C43.893,55.072 45.3,53.665 45.3,51.929 C45.3,50.194 43.893,48.787 42.158,48.787 C40.422,48.787 39.015,50.194 39.015,51.929" id="Fill-270" fill="#3F99C8"></path>
            <path d="M42.158,49.288 C40.701,49.288 39.515,50.473 39.515,51.93 C39.515,53.387 40.701,54.571 42.158,54.571 C43.615,54.571 44.799,53.387 44.799,51.93 C44.799,50.473 43.615,49.288 42.158,49.288 Z M42.158,55.571 C40.149,55.571 38.515,53.937 38.515,51.93 C38.515,49.921 40.149,48.288 42.158,48.288 C44.166,48.288 45.799,49.921 45.799,51.93 C45.799,53.937 44.166,55.571 42.158,55.571 L42.158,55.571 Z" id="Fill-271" fill="#5C6165"></path>
            <path d="M27.357,55.714 L22.809,55.714 C22.532,55.714 22.309,55.49 22.309,55.214 C22.309,54.937 22.532,54.714 22.809,54.714 L27.357,54.714 C27.835,54.714 28.224,54.325 28.224,53.847 L28.224,29.356 C28.224,29.08 28.447,28.856 28.724,28.856 C29,28.856 29.224,29.08 29.224,29.356 L29.224,53.847 C29.224,54.876 28.386,55.714 27.357,55.714" id="Fill-272" fill="#5C6165"></path>
            <path d="M22.73,55.214 C22.73,56.95 21.323,58.356 19.588,58.356 C17.853,58.356 16.446,56.95 16.446,55.214 C16.446,53.479 17.853,52.072 19.588,52.072 C21.323,52.072 22.73,53.479 22.73,55.214" id="Fill-273" fill="#3F99C8"></path>
            <path d="M19.588,52.572 C18.131,52.572 16.946,53.757 16.946,55.214 C16.946,56.671 18.131,57.856 19.588,57.856 C21.045,57.856 22.23,56.671 22.23,55.214 C22.23,53.757 21.045,52.572 19.588,52.572 Z M19.588,58.856 C17.58,58.856 15.946,57.223 15.946,55.214 C15.946,53.206 17.58,51.572 19.588,51.572 C21.596,51.572 23.23,53.206 23.23,55.214 C23.23,57.223 21.596,58.856 19.588,58.856 L19.588,58.856 Z" id="Fill-274" fill="#5C6165"></path>
        </g>
    </g>
</svg>