<?xml version="1.0" encoding="UTF-8"?>
<svg width="78px" height="64px" viewBox="0 0 78 64" version="1.1" xmlns="http://www.w3.org/2000/svg" xmlns:xlink="http://www.w3.org/1999/xlink">
    <!-- Generator: Sketch 43.2 (39069) - http://www.bohemiancoding.com/sketch -->
    <title>Group</title>
    <desc>Created with Sketch.</desc>
    <defs></defs>
    <g id="Page-1" stroke="none" stroke-width="1" fill="none" fill-rule="evenodd">
        <g id="Group">
            <path d="M67.971,37.321 L67.971,37.321 L57.789,37.319 C57.374,37.319 57.039,36.983 57.039,36.569 C57.039,36.155 57.374,35.819 57.789,35.819 L67.905,35.821 C67.921,35.819 67.939,35.819 67.955,35.818 C72.419,35.724 76.051,32.014 76.051,27.55 C76.051,23.045 72.523,19.414 68.02,19.285 C67.763,19.277 67.527,19.139 67.396,18.917 C67.265,18.695 67.257,18.423 67.374,18.193 C68.165,16.647 68.566,14.985 68.566,13.251 C68.566,7.262 63.694,2.389 57.705,2.389 C53.676,2.389 49.999,4.603 48.108,8.165 C48.001,8.365 47.811,8.507 47.588,8.55 C47.367,8.593 47.136,8.533 46.962,8.387 C45.165,6.872 42.878,6.038 40.524,6.038 C35.017,6.038 30.532,10.518 30.527,16.023 C30.527,16.317 30.354,16.585 30.086,16.706 C26.506,18.322 24.193,21.901 24.193,25.824 C24.193,26.238 23.857,26.574 23.443,26.574 C23.029,26.574 22.693,26.238 22.693,25.824 C22.693,21.473 25.168,17.488 29.038,15.545 C29.294,9.433 34.351,4.538 40.524,4.538 C42.934,4.538 45.282,5.298 47.227,6.693 C49.479,3.092 53.417,0.889 57.705,0.889 C64.521,0.889 70.066,6.435 70.066,13.251 C70.066,14.856 69.764,16.408 69.167,17.878 C73.949,18.547 77.551,22.602 77.551,27.55 C77.551,32.801 73.297,37.168 68.055,37.316 C68.027,37.319 67.999,37.321 67.971,37.321" id="Fill-305" fill="#131614"></path>
            <path d="M4.528,58.336 L4.529,58.595 C4.551,60.777 4.687,61.533 7.231,61.555 C7.81,61.56 57.992,61.587 58.859,61.583 C61.405,61.563 61.541,60.807 61.559,58.626 L61.56,58.366 L4.528,58.336 Z M57.725,63.084 C50.139,63.084 7.748,63.06 7.217,63.055 C3.385,63.022 3.053,61.022 3.029,58.609 L3.026,57.586 C3.026,57.387 3.105,57.196 3.246,57.056 C3.386,56.915 3.577,56.836 3.776,56.836 L62.315,56.866 C62.514,56.866 62.705,56.945 62.846,57.087 C62.986,57.228 63.065,57.419 63.064,57.618 L63.059,58.639 C63.039,61.052 62.71,63.052 58.869,63.083 C58.798,63.083 58.398,63.084 57.725,63.084 L57.725,63.084 Z" id="Fill-306" fill="#131614"></path>
            <path d="M55.195,58.338 C54.781,58.338 54.445,58.002 54.445,57.588 L54.445,30.351 C54.445,29.577 53.808,29.517 53.613,29.517 L12.477,29.517 C12.172,29.524 11.645,29.643 11.645,30.351 L11.645,57.076 C11.645,57.49 11.31,57.826 10.895,57.826 C10.481,57.826 10.145,57.49 10.145,57.076 L10.145,30.351 C10.145,28.64 11.54,28.018 12.477,28.017 L53.613,28.017 C54.55,28.017 55.945,28.638 55.945,30.351 L55.945,57.588 C55.945,58.002 55.609,58.338 55.195,58.338" id="Fill-307" fill="#131614"></path>
            <path d="M51.94,56.177 C51.526,56.177 51.19,55.841 51.19,55.427 L51.19,33.034 L15.204,33.034 L15.204,54.946 C15.204,55.36 14.868,55.696 14.454,55.696 C14.04,55.696 13.704,55.36 13.704,54.946 L13.704,32.284 C13.704,31.87 14.04,31.534 14.454,31.534 L51.94,31.534 C52.354,31.534 52.69,31.87 52.69,32.284 L52.69,55.427 C52.69,55.841 52.354,56.177 51.94,56.177" id="Fill-308" fill="#131614"></path>
            <path d="M0.913,49.75 C0.499,49.75 0.163,49.414 0.163,49 L0.163,15 C0.163,14.586 0.499,14.25 0.913,14.25 L17.913,14.25 C18.327,14.25 18.663,14.586 18.663,15 C18.663,15.414 18.327,15.75 17.913,15.75 L1.663,15.75 L1.663,49 C1.663,49.414 1.327,49.75 0.913,49.75" id="Fill-309" fill="#3F99C8"></path>
            <path d="M65.913,51.75 L62.913,51.75 C62.498,51.75 62.163,51.414 62.163,51 C62.163,50.586 62.498,50.25 62.913,50.25 L65.163,50.25 L65.163,42 C65.163,41.586 65.498,41.25 65.913,41.25 C66.327,41.25 66.663,41.586 66.663,42 L66.663,51 C66.663,51.414 66.327,51.75 65.913,51.75" id="Fill-310" fill="#3F99C8"></path>
            <path d="M58.913,51.75 L57.913,51.75 C57.498,51.75 57.163,51.414 57.163,51 C57.163,50.586 57.498,50.25 57.913,50.25 L58.913,50.25 C59.327,50.25 59.663,50.586 59.663,51 C59.663,51.414 59.327,51.75 58.913,51.75" id="Fill-311" fill="#3F99C8"></path>
            <path d="M22.913,15.75 L21.913,15.75 C21.499,15.75 21.163,15.414 21.163,15 C21.163,14.586 21.499,14.25 21.913,14.25 L22.913,14.25 C23.327,14.25 23.663,14.586 23.663,15 C23.663,15.414 23.327,15.75 22.913,15.75" id="Fill-312" fill="#3F99C8"></path>
        </g>
    </g>
</svg>