<?xml version="1.0" encoding="UTF-8"?>
<svg width="54px" height="61px" viewBox="0 0 54 61" version="1.1" xmlns="http://www.w3.org/2000/svg" xmlns:xlink="http://www.w3.org/1999/xlink">
    <!-- Generator: Sketch 43.2 (39069) - http://www.bohemiancoding.com/sketch -->
    <title>Group 6</title>
    <desc>Created with Sketch.</desc>
    <defs></defs>
    <g id="Page-1" stroke="none" stroke-width="1" fill="none" fill-rule="evenodd">
        <g id="Group-6">
            <path d="M22.349,49.551 C22.349,46.949 24.458,44.84 27.06,44.84 C29.662,44.84 31.771,46.949 31.771,49.551 L22.349,49.551" id="Fill-108" fill="#EDF0F0"></path>
            <path d="M31.771,50.051 C31.495,50.051 31.271,49.828 31.271,49.551 C31.271,47.229 29.382,45.34 27.06,45.34 C24.738,45.34 22.849,47.229 22.849,49.551 C22.849,49.828 22.625,50.051 22.349,50.051 C22.073,50.051 21.849,49.828 21.849,49.551 C21.849,46.678 24.187,44.34 27.06,44.34 C29.933,44.34 32.271,46.678 32.271,49.551 C32.271,49.828 32.047,50.051 31.771,50.051" id="Fill-109" fill="#5C6165"></path>
            <path d="M5.394,49.551 C5.394,44.869 9.189,41.073 13.871,41.073 C18.553,41.073 22.349,44.869 22.349,49.551 L5.394,49.551" id="Fill-110" fill="#EDF0F0"></path>
            <path d="M22.349,50.051 C22.073,50.051 21.849,49.828 21.849,49.551 C21.849,45.152 18.27,41.574 13.872,41.574 C9.473,41.574 5.894,45.152 5.894,49.551 C5.894,49.828 5.67,50.051 5.394,50.051 C5.118,50.051 4.894,49.828 4.894,49.551 C4.894,44.601 8.921,40.574 13.872,40.574 C18.822,40.574 22.849,44.601 22.849,49.551 C22.849,49.828 22.625,50.051 22.349,50.051" id="Fill-111" fill="#5C6165"></path>
            <path d="M31.771,49.551 C31.771,44.869 35.567,41.073 40.249,41.073 C44.931,41.073 48.727,44.869 48.727,49.551 L31.771,49.551" id="Fill-112" fill="#EDF0F0"></path>
            <path d="M48.727,50.051 C48.451,50.051 48.227,49.828 48.227,49.551 C48.227,45.152 44.648,41.574 40.249,41.574 C35.85,41.574 32.271,45.152 32.271,49.551 C32.271,49.828 32.047,50.051 31.771,50.051 C31.495,50.051 31.271,49.828 31.271,49.551 C31.271,44.601 35.298,40.574 40.249,40.574 C45.2,40.574 49.227,44.601 49.227,49.551 C49.227,49.828 49.003,50.051 48.727,50.051" id="Fill-113" fill="#5C6165"></path>
            <path d="M50.266,55.206 L3.854,55.206 C1.805,55.206 0.138,53.539 0.138,51.49 L0.138,22.01 C0.138,19.961 1.805,18.294 3.854,18.294 L17.662,18.294 C17.938,18.294 18.162,18.518 18.162,18.794 C18.162,19.071 17.938,19.294 17.662,19.294 L3.854,19.294 C2.357,19.294 1.138,20.513 1.138,22.01 L1.138,51.49 C1.138,52.988 2.357,54.206 3.854,54.206 L50.266,54.206 C51.763,54.206 52.982,52.988 52.982,51.49 L52.982,22.01 C52.982,20.513 51.763,19.294 50.266,19.294 L36.458,19.294 C36.182,19.294 35.958,19.071 35.958,18.794 C35.958,18.518 36.182,18.294 36.458,18.294 L50.266,18.294 C52.315,18.294 53.982,19.961 53.982,22.01 L53.982,51.49 C53.982,53.539 52.315,55.206 50.266,55.206" id="Fill-114" fill="#5C6165"></path>
            <path d="M53.482,50.208 L0.638,50.208 C0.362,50.208 0.138,49.984 0.138,49.708 C0.138,49.432 0.362,49.208 0.638,49.208 L53.482,49.208 C53.758,49.208 53.982,49.432 53.982,49.708 C53.982,49.984 53.758,50.208 53.482,50.208" id="Fill-115" fill="#5C6165"></path>
            <path d="M0.638,51.16 C0.638,53.119 2.078,54.706 3.854,54.706 L50.266,54.706 C52.042,54.706 53.482,53.119 53.482,51.16 L53.482,49.196 L0.638,49.196 L0.638,51.16" id="Fill-116" fill="#3F99C8"></path>
            <path d="M1.138,49.696 L1.138,51.161 C1.138,52.84 2.357,54.206 3.854,54.206 L50.266,54.206 C51.763,54.206 52.982,52.84 52.982,51.161 L52.982,49.696 L1.138,49.696 Z M50.266,55.206 L3.854,55.206 C1.805,55.206 0.138,53.391 0.138,51.161 L0.138,49.196 C0.138,48.919 0.362,48.696 0.638,48.696 L53.482,48.696 C53.758,48.696 53.982,48.919 53.982,49.196 L53.982,51.161 C53.982,53.391 52.315,55.206 50.266,55.206 L50.266,55.206 Z" id="Fill-117" fill="#5C6165"></path>
            <path d="M24.133,60.237 C23.857,60.237 23.633,60.014 23.633,59.737 L23.633,54.706 C23.633,54.43 23.857,54.206 24.133,54.206 C24.41,54.206 24.633,54.43 24.633,54.706 L24.633,59.737 C24.633,60.014 24.41,60.237 24.133,60.237" id="Fill-118" fill="#5C6165"></path>
            <path d="M30.841,60.237 C30.565,60.237 30.341,60.014 30.341,59.737 L30.341,54.706 C30.341,54.43 30.565,54.206 30.841,54.206 C31.118,54.206 31.341,54.43 31.341,54.706 L31.341,59.737 C31.341,60.014 31.118,60.237 30.841,60.237" id="Fill-119" fill="#5C6165"></path>
            <path d="M34.723,60.237 L20.251,60.237 C19.975,60.237 19.751,60.014 19.751,59.737 C19.751,59.461 19.975,59.237 20.251,59.237 L34.723,59.237 C35,59.237 35.223,59.461 35.223,59.737 C35.223,60.014 35,60.237 34.723,60.237" id="Fill-120" fill="#5C6165"></path>
            <path d="M21.088,31.69 L33.025,31.69 L33.025,10.011 C33.025,7.428 28.987,3.236 27.056,1.489 C25.126,3.236 21.088,7.428 21.088,10.011 L21.088,31.69 Z M33.525,32.69 L20.588,32.69 C20.312,32.69 20.088,32.466 20.088,32.19 L20.088,10.011 C20.088,6.255 26.458,0.678 26.728,0.443 C26.917,0.28 27.195,0.28 27.384,0.443 C27.655,0.678 34.025,6.255 34.025,10.011 L34.025,32.19 C34.025,32.466 33.801,32.69 33.525,32.69 L33.525,32.69 Z" id="Fill-121" fill="#5C6165"></path>
            <path d="M15.234,28.318 L15.234,35.334 L20.088,31.803 L20.088,24.788 L15.234,28.318 Z M14.734,36.816 C14.657,36.816 14.579,36.798 14.507,36.762 C14.339,36.676 14.234,36.504 14.234,36.316 L14.234,28.064 C14.234,27.904 14.31,27.754 14.44,27.66 L20.294,23.401 C20.447,23.292 20.648,23.276 20.815,23.36 C20.983,23.445 21.088,23.618 21.088,23.806 L21.088,32.058 C21.088,32.218 21.012,32.368 20.882,32.462 L15.028,36.72 C14.941,36.784 14.837,36.816 14.734,36.816 L14.734,36.816 Z" id="Fill-122" fill="#5C6165"></path>
            <path d="M34.032,31.803 L38.886,35.334 L38.886,28.318 L34.032,24.788 L34.032,31.803 Z M39.386,36.816 C39.283,36.816 39.179,36.784 39.092,36.72 L33.238,32.462 C33.108,32.368 33.032,32.218 33.032,32.058 L33.032,23.806 C33.032,23.618 33.137,23.445 33.305,23.36 C33.473,23.276 33.674,23.292 33.826,23.401 L39.68,27.66 C39.81,27.754 39.886,27.904 39.886,28.064 L39.886,36.316 C39.886,36.504 39.781,36.676 39.613,36.762 C39.542,36.798 39.463,36.816 39.386,36.816 L39.386,36.816 Z" id="Fill-123" fill="#5C6165"></path>
            <path d="M27.487,52.707 L26.633,52.707 C26.357,52.707 26.133,52.483 26.133,52.207 C26.133,51.931 26.357,51.707 26.633,51.707 L27.487,51.707 C27.763,51.707 27.987,51.931 27.987,52.207 C27.987,52.483 27.763,52.707 27.487,52.707" id="Fill-124" fill="#5C6165"></path>
            <path d="M22.912,39.298 C22.635,39.298 22.412,39.075 22.412,38.798 L22.412,32.899 C22.412,32.623 22.635,32.399 22.912,32.399 C23.188,32.399 23.412,32.623 23.412,32.899 L23.412,38.798 C23.412,39.075 23.188,39.298 22.912,39.298" id="Fill-125" fill="#5C6165"></path>
            <path d="M27.06,39.298 C26.784,39.298 26.56,39.075 26.56,38.798 L26.56,32.899 C26.56,32.623 26.784,32.399 27.06,32.399 C27.336,32.399 27.56,32.623 27.56,32.899 L27.56,38.798 C27.56,39.075 27.336,39.298 27.06,39.298" id="Fill-126" fill="#5C6165"></path>
            <path d="M31.208,39.298 C30.932,39.298 30.708,39.075 30.708,38.798 L30.708,32.899 C30.708,32.623 30.932,32.399 31.208,32.399 C31.485,32.399 31.708,32.623 31.708,32.899 L31.708,38.798 C31.708,39.075 31.485,39.298 31.208,39.298" id="Fill-127" fill="#5C6165"></path>
            <path d="M22.912,42.718 C22.635,42.718 22.412,42.495 22.412,42.218 L22.412,40.535 C22.412,40.259 22.635,40.035 22.912,40.035 C23.188,40.035 23.412,40.259 23.412,40.535 L23.412,42.218 C23.412,42.495 23.188,42.718 22.912,42.718" id="Fill-128" fill="#5C6165"></path>
            <path d="M27.06,42.718 C26.784,42.718 26.56,42.495 26.56,42.218 L26.56,40.535 C26.56,40.259 26.784,40.035 27.06,40.035 C27.336,40.035 27.56,40.259 27.56,40.535 L27.56,42.218 C27.56,42.495 27.336,42.718 27.06,42.718" id="Fill-129" fill="#5C6165"></path>
            <path d="M31.208,42.718 C30.932,42.718 30.708,42.495 30.708,42.218 L30.708,40.535 C30.708,40.259 30.932,40.035 31.208,40.035 C31.485,40.035 31.708,40.259 31.708,40.535 L31.708,42.218 C31.708,42.495 31.485,42.718 31.208,42.718" id="Fill-130" fill="#5C6165"></path>
            <path d="M30.365,13.792 C30.365,15.617 28.886,17.097 27.06,17.097 C25.235,17.097 23.755,15.617 23.755,13.792 C23.755,11.966 25.235,10.486 27.06,10.486 C28.886,10.486 30.365,11.966 30.365,13.792" id="Fill-131" fill="#3F99C8"></path>
            <path d="M27.06,10.986 C25.513,10.986 24.254,12.245 24.254,13.792 C24.254,15.339 25.513,16.597 27.06,16.597 C28.607,16.597 29.866,15.339 29.866,13.792 C29.866,12.245 28.607,10.986 27.06,10.986 Z M27.06,17.597 C24.961,17.597 23.254,15.89 23.254,13.792 C23.254,11.693 24.961,9.986 27.06,9.986 C29.159,9.986 30.866,11.693 30.866,13.792 C30.866,15.89 29.159,17.597 27.06,17.597 L27.06,17.597 Z" id="Fill-132" fill="#5C6165"></path>
        </g>
    </g>
</svg>