<?xml version="1.0" encoding="UTF-8"?>
<svg width="320px" height="254px" viewBox="0 0 320 254" version="1.1" xmlns="http://www.w3.org/2000/svg" xmlns:xlink="http://www.w3.org/1999/xlink">
    <!-- Generator: Sketch 43.2 (39069) - http://www.bohemiancoding.com/sketch -->
    <title>responsive-design-symbol copy</title>
    <desc>Created with Sketch.</desc>
    <defs>
        <filter x="-3.1%" y="-4.3%" width="106.2%" height="108.6%" filterUnits="objectBoundingBox" id="filter-1">
            <feGaussianBlur stdDeviation="2.85714286" in="SourceGraphic"></feGaussianBlur>
        </filter>
        <filter x="-8.3%" y="-5.5%" width="116.7%" height="110.9%" filterUnits="objectBoundingBox" id="filter-2">
            <feGaussianBlur stdDeviation="3" in="SourceGraphic"></feGaussianBlur>
        </filter>
    </defs>
    <g id="Homepage-mobile" stroke="none" stroke-width="1" fill="none" fill-rule="evenodd" opacity="0.600000024">
        <g id="iPhone-5" transform="translate(0.000000, -192.000000)" fill="#000000">
            <g id="responsive-design-symbol-copy" transform="translate(0.000000, 199.000000)">
                <g id="Capa_1">
                    <g id="Group">
                        <g id="Shape">
                            <path d="M297.334378,0 L53.5929653,0 C45.1125978,0 38.2137042,6.89120559 38.2137042,15.3627312 L38.2137042,55.4319737 C38.2137042,60.72944 37.8201139,61.4785527 41.3782327,61.4785527 L47.4796715,61.4785527 C50.4655828,61.4785527 49.8530679,60.72944 49.8530679,55.3333024 L49.8530679,15.3627312 C49.8530679,13.3379955 51.5665289,11.62664 53.5929653,11.62664 L297.334378,11.62664 C299.360024,11.62664 301.073485,13.3379955 301.073485,15.3627312 L301.073485,165.342361 L127.301032,165.342361 C127.301032,165.342361 121.176674,165.33131 121.176674,173.240804 L121.176674,192.000986 C121.176674,199.899429 127.499408,199.899429 127.499408,199.899429 L297.334378,199.899429 C305.813955,199.899429 312.715219,193.009013 312.715219,184.539066 L312.715219,15.3627312 C312.715219,6.89199496 305.815535,0 297.334378,0 Z M175.464462,186.635634 C171.635256,186.635634 168.532374,183.536565 168.532374,179.714432 C168.532374,175.8923 171.635256,172.791652 175.464462,172.791652 C179.289716,172.791652 182.393388,175.8923 182.393388,179.714432 C182.393388,183.536565 179.289716,186.635634 175.464462,186.635634 Z" filter="url(#filter-1)"></path>
                            <path d="M98.1011764,75.0769231 L9.92590271,75.0769231 C4.45120504,75.0769231 0,79.5234478 0,84.9914182 L0,229.739889 C0,235.20707 4.45120504,239.655174 9.92590271,239.655174 L98.1011764,239.655174 C103.572713,239.655174 108.027079,235.20707 108.027079,229.739889 L108.027079,84.9914182 C108.027079,79.5234478 103.572713,75.0769231 98.1011764,75.0769231 Z M43.1368556,85.1887608 L64.8894331,85.1887608 C65.9271519,85.1887608 66.7704466,86.0286512 66.7704466,87.0682523 C66.7704466,88.1054853 65.9279422,88.946165 64.8894331,88.946165 L43.1368556,88.946165 C42.0975562,88.946165 41.2566325,88.1054853 41.2566325,87.0682523 C41.2566325,86.0286512 42.0975562,85.1887608 43.1368556,85.1887608 Z M53.8815525,232.691346 C51.0442254,232.691346 48.7443307,230.394277 48.7443307,227.560437 C48.7443307,224.726596 51.0442254,222.429528 53.8815525,222.429528 C56.7188795,222.429528 59.0187742,224.726596 59.0187742,227.560437 C59.0187742,230.394277 56.7188795,232.691346 53.8815525,232.691346 Z M99.4985007,217.611209 C99.4985007,218.934195 98.437862,220.016422 97.1432821,220.016422 L10.886168,220.016422 C9.59079779,220.016422 8.53094943,218.934195 8.53094943,217.611209 L8.53094943,97.3308599 C8.53094943,96.0078747 9.59158813,94.9264369 10.886168,94.9264369 L97.1432821,94.9264369 C98.4386523,94.9264369 99.4985007,96.008664 99.4985007,97.3308599 L99.4985007,217.611209 Z" filter="url(#filter-2)"></path>
                        </g>
                    </g>
                </g>
            </g>
        </g>
    </g>
</svg>