<?xml version="1.0" encoding="UTF-8"?>
<svg width="61px" height="48px" viewBox="0 0 61 48" version="1.1" xmlns="http://www.w3.org/2000/svg" xmlns:xlink="http://www.w3.org/1999/xlink">
    <!-- Generator: Sketch 43.2 (39069) - http://www.bohemiancoding.com/sketch -->
    <title>email-automation</title>
    <desc>Created with Sketch.</desc>
    <defs></defs>
    <g id="Page-1" stroke="none" stroke-width="1" fill="none" fill-rule="evenodd">
        <g id="email-automation" fill-rule="nonzero">
            <path d="M3.985,13.326 C2.868,13.326 1.958,14.235 1.958,15.353 L1.958,44.002 C1.958,45.119 2.868,46.028 3.985,46.028 L45.137,46.028 C46.254,46.028 47.163,45.119 47.163,44.002 L47.163,15.353 C47.163,14.235 46.254,13.326 45.137,13.326 L3.985,13.326 Z M45.137,47.028 L3.985,47.028 C2.316,47.028 0.958,45.671 0.958,44.002 L0.958,15.353 C0.958,13.685 2.316,12.326 3.985,12.326 L45.137,12.326 C46.806,12.326 48.163,13.685 48.163,15.353 L48.163,44.002 C48.163,45.671 46.806,47.028 45.137,47.028 L45.137,47.028 Z" id="Fill-389" fill="#5C6165"></path>
            <path d="M24.561,34.055 C23.787,34.055 23.014,33.769 22.425,33.196 L2.437,13.77 C2.239,13.577 2.234,13.261 2.427,13.063 C2.619,12.865 2.936,12.859 3.134,13.053 L23.123,32.48 C23.915,33.249 25.206,33.249 26,32.48 L45.985,13.053 C46.184,12.859 46.501,12.865 46.692,13.063 C46.885,13.261 46.88,13.577 46.683,13.77 L26.696,33.196 C26.107,33.769 25.333,34.055 24.561,34.055" id="Fill-390" fill="#5C6165"></path>
            <path d="M2.786,46.691 C2.643,46.691 2.501,46.631 2.402,46.513 C2.225,46.302 2.252,45.986 2.464,45.809 L18.182,32.616 C18.394,32.439 18.709,32.467 18.886,32.678 C19.063,32.889 19.036,33.204 18.824,33.382 L3.107,46.574 C3.013,46.653 2.899,46.691 2.786,46.691" id="Fill-391" fill="#5C6165"></path>
            <path d="M46.333,46.691 C46.22,46.691 46.106,46.653 46.013,46.574 L30.299,33.384 C30.087,33.206 30.06,32.891 30.237,32.68 C30.414,32.469 30.729,32.439 30.941,32.618 L46.655,45.809 C46.867,45.986 46.895,46.302 46.717,46.513 C46.618,46.631 46.477,46.691 46.333,46.691" id="Fill-392" fill="#5C6165"></path>
            <path d="M47.663,15.353 C47.663,13.959 46.53,12.827 45.137,12.827 L7.51,12.827 L7.51,9.302 C7.51,7.908 8.642,6.775 10.036,6.775 L51.188,6.775 C52.581,6.775 53.715,7.908 53.715,9.302 L53.715,37.951 C53.715,39.345 52.581,40.477 51.188,40.477 L47.663,40.477 L47.663,15.353" id="Fill-393" fill="#EDF0F0"></path>
            <path d="M48.163,39.977 L51.187,39.977 C52.305,39.977 53.214,39.068 53.214,37.951 L53.214,9.302 C53.214,8.185 52.305,7.275 51.187,7.275 L10.037,7.275 C8.919,7.275 8.01,8.185 8.01,9.302 L8.01,12.326 L45.137,12.326 C46.806,12.326 48.163,13.685 48.163,15.353 L48.163,39.977 Z M51.187,40.977 L47.663,40.977 C47.387,40.977 47.163,40.754 47.163,40.477 L47.163,15.353 C47.163,14.235 46.254,13.326 45.137,13.326 L7.51,13.326 C7.233,13.326 7.01,13.102 7.01,12.826 L7.01,9.302 C7.01,7.633 8.368,6.275 10.037,6.275 L51.187,6.275 C52.856,6.275 54.214,7.633 54.214,9.302 L54.214,37.951 C54.214,39.62 52.856,40.977 51.187,40.977 L51.187,40.977 Z" id="Fill-394" fill="#5C6165"></path>
            <path d="M53.664,9.353 C53.664,7.959 52.53,6.826 51.137,6.826 L13.51,6.826 L13.51,3.302 C13.51,1.908 14.642,0.775 16.037,0.775 L57.188,0.775 C58.582,0.775 59.715,1.908 59.715,3.302 L59.715,31.951 C59.715,33.344 58.582,34.477 57.188,34.477 L53.664,34.477 L53.664,9.353" id="Fill-395" fill="#3F99C8"></path>
            <path d="M54.164,33.977 L57.188,33.977 C58.306,33.977 59.215,33.068 59.215,31.951 L59.215,3.302 C59.215,2.185 58.306,1.275 57.188,1.275 L16.037,1.275 C14.919,1.275 14.01,2.185 14.01,3.302 L14.01,6.326 L51.137,6.326 C52.806,6.326 54.164,7.684 54.164,9.352 L54.164,33.977 Z M57.188,34.977 L53.664,34.977 C53.387,34.977 53.164,34.753 53.164,34.477 L53.164,9.352 C53.164,8.235 52.254,7.326 51.137,7.326 L13.51,7.326 C13.234,7.326 13.01,7.102 13.01,6.826 L13.01,3.302 C13.01,1.633 14.368,0.275 16.037,0.275 L57.188,0.275 C58.857,0.275 60.215,1.633 60.215,3.302 L60.215,31.951 C60.215,33.619 58.857,34.977 57.188,34.977 L57.188,34.977 Z" id="Fill-396" fill="#5C6165"></path>
        </g>
    </g>
</svg>