<?xml version="1.0" encoding="UTF-8"?>
<svg width="1337px" height="351px" viewBox="0 0 1337 351" version="1.1" xmlns="http://www.w3.org/2000/svg" xmlns:xlink="http://www.w3.org/1999/xlink">
    <!-- Generator: Sketch 43.2 (39069) - http://www.bohemiancoding.com/sketch -->
    <title>Group</title>
    <desc>Created with Sketch.</desc>
    <defs></defs>
    <g id="Page-1" stroke="none" stroke-width="1" fill="none" fill-rule="evenodd">
        <g id="Group">
            <g id="firebase-1">
                <path d="M0,282.998 L2.123,280.026 L102.527,89.512 L102.739,87.495 L58.48,4.358 C54.77,-2.606 44.33,-0.845 43.114,6.951 L0,282.998 Z" id="Shape" fill="#FFC24A" fill-rule="nonzero"></path>
                <g id="a-link" transform="translate(1.000000, 1.000000)" fill="#FFA712">
                    <path d="M0.253,279.732 L1.858,276.601 L101.211,88.083 L57.061,4.608 C53.392,-2.283 44.074,-0.526 42.87,7.188 L0.253,279.732 Z" id="a"></path>
                </g>
                <path d="M1.253,280.732 L2.858,277.601 L102.211,89.083 L58.061,5.608 C54.392,-1.283 45.074,0.474 43.87,8.188 L1.253,280.732 Z" id="a" fill="#FFA000" fill-rule="nonzero"></path>
                <path d="M135.005,150.38 L167.96,116.63 L134.995,53.7 C131.866,47.743 123.129,47.725 120.033,53.7 L102.42,87.287 L102.42,90.147 L135.004,150.38 L135.005,150.38 Z" id="Shape" fill="#F4BD62" fill-rule="nonzero"></path>
                <g id="c-link" transform="translate(102.000000, 50.000000)" fill="#FFA50E">
                    <path d="M32.417,98.974 L64.456,66.162 L32.417,5.155 C29.375,-0.636 21.984,-1.243 18.974,4.565 L1.269,38.674 L0.739,40.418 L32.417,98.974 L32.417,98.974 Z" id="c"></path>
                </g>
                <path d="M134.417,148.974 L166.456,116.162 L134.417,55.155 C131.375,49.364 123.984,48.757 120.974,54.565 L103.269,88.674 L102.739,90.418 L134.417,148.974 L134.417,148.974 Z" id="c" fill="#FFA000" fill-rule="nonzero"></path>
                <polygon id="Shape" fill="#F6820C" fill-rule="nonzero" points="0 282.998 0.962 282.03 4.458 280.61 132.935 152.61 134.563 148.179 102.513 87.105"></polygon>
                <path d="M139.121,347.551 L255.396,282.704 L222.192,78.209 C221.153,71.811 213.304,69.282 208.724,73.869 L0,282.998 L115.608,347.546 C122.91442,351.625268 131.812846,351.627161 139.121,347.551" id="Shape" fill="#FDE068" fill-rule="nonzero"></path>
                <path d="M254.354,282.16 L221.402,79.218 C220.372,72.868 213.844,70.241 209.299,74.794 L1.29,282.6 L115.629,346.508 C122.879651,350.556407 131.710268,350.558678 138.963,346.514 L254.355,282.159 L254.354,282.16 Z" id="Shape" fill="#FFCA28" fill-rule="nonzero"></path>
                <path d="M139.12,345.64 C131.812105,349.715789 122.914161,349.713896 115.608,345.635 L0.931,282.015 L0.001,282.998 L115.608,347.546 C122.91442,351.625268 131.812846,351.627161 139.121,347.551 L255.396,282.704 L255.111,280.952 L139.121,345.641 L139.12,345.64 Z" id="Shape" fill="#EEAB37" fill-rule="nonzero"></path>
            </g>
            <path d="M392.105,260 L392.105,182.24 L482.015,182.24 L482.015,154.43 L392.105,154.43 L392.105,107.72 L483.905,107.72 L483.905,79.91 L360.515,79.91 L360.515,260 L392.105,260 Z M520.485,113.66 C530.205,113.66 538.035,105.83 538.035,96.11 C538.035,86.39 530.205,78.56 520.485,78.56 C511.035,78.56 502.935,86.39 502.935,96.11 C502.935,105.83 511.035,113.66 520.485,113.66 Z M534.795,260 L534.795,129.59 L506.445,129.59 L506.445,260 L534.795,260 Z M594.865,260 L594.865,171.17 C600.535,161.99 616.465,153.89 628.345,153.89 C631.855,153.89 634.825,154.16 637.255,154.7 L637.255,126.62 C620.245,126.62 604.585,136.34 594.865,148.76 L594.865,129.59 L566.515,129.59 L566.515,260 L594.865,260 Z M715.415,263.24 C676.265,263.24 647.105,235.97 647.105,194.66 C647.105,156.86 674.645,126.35 713.255,126.35 C752.405,126.35 777.515,156.32 777.515,197.36 L777.515,204.11 L676.805,204.11 C678.965,223.82 693.815,240.02 718.385,240.02 C731.075,240.02 746.195,234.89 755.375,225.71 L768.335,244.34 C755.375,256.76 736.205,263.24 715.415,263.24 Z M749.975,184.13 C749.435,168.74 738.905,149.57 713.255,149.57 C688.955,149.57 677.885,168.2 676.535,184.13 L749.975,184.13 Z M828.945,220.85 C835.155,230.57 849.195,238.13 862.425,238.13 C885.105,238.13 899.415,220.31 899.415,194.93 C899.415,169.55 885.105,151.46 862.425,151.46 C849.195,151.46 835.155,159.56 828.945,169.28 L828.945,220.85 Z M828.945,260 L800.595,260 L800.595,79.91 L828.945,79.91 L828.945,147.68 C839.205,133.91 854.325,126.35 870.795,126.35 C904.275,126.35 928.575,152.81 928.575,194.93 C928.575,237.86 904.005,263.24 870.795,263.24 C853.785,263.24 838.935,255.14 828.945,242.18 L828.945,260 Z M1060.465,260 L1032.115,260 L1032.115,245.96 C1022.395,257.03 1007.275,263.24 989.995,263.24 C968.665,263.24 944.635,248.93 944.635,220.04 C944.635,190.07 968.665,177.65 989.995,177.65 C1007.545,177.65 1022.665,183.32 1032.115,194.39 L1032.115,174.95 C1032.115,159.83 1019.695,150.65 1001.605,150.65 C987.025,150.65 974.335,156.05 962.995,167.12 L951.385,147.41 C966.505,133.1 985.405,126.35 1006.195,126.35 C1035.085,126.35 1060.465,138.5 1060.465,173.6 L1060.465,260 Z M1001.065,243.8 C1013.485,243.8 1025.635,239.21 1032.115,230.3 L1032.115,210.59 C1025.635,201.68 1013.485,197.09 1001.065,197.09 C985.135,197.09 973.255,206.27 973.255,220.58 C973.255,234.62 985.135,243.8 1001.065,243.8 Z M1136.735,263.24 C1171.835,263.24 1191.005,245.69 1191.005,222.74 C1191.005,170.9 1112.165,188.18 1112.165,164.96 C1112.165,155.78 1121.615,149.03 1136.465,149.03 C1152.665,149.03 1167.245,155.78 1175.075,164.69 L1186.955,144.71 C1175.075,134.18 1158.335,126.35 1136.195,126.35 C1103.255,126.35 1084.895,144.71 1084.895,166.04 C1084.895,215.99 1163.735,197.63 1163.735,223.28 C1163.735,233.54 1155.095,240.83 1138.085,240.83 C1121.075,240.83 1102.985,231.92 1093.805,222.47 L1080.845,242.99 C1094.345,256.22 1114.595,263.24 1136.735,263.24 Z M1274.835,263.24 C1235.685,263.24 1206.525,235.97 1206.525,194.66 C1206.525,156.86 1234.065,126.35 1272.675,126.35 C1311.825,126.35 1336.935,156.32 1336.935,197.36 L1336.935,204.11 L1236.225,204.11 C1238.385,223.82 1253.235,240.02 1277.805,240.02 C1290.495,240.02 1305.615,234.89 1314.795,225.71 L1327.755,244.34 C1314.795,256.76 1295.625,263.24 1274.835,263.24 Z M1309.395,184.13 C1308.855,168.74 1298.325,149.57 1272.675,149.57 C1248.375,149.57 1237.305,168.2 1235.955,184.13 L1309.395,184.13 Z" id="Firebase" fill="#FFFFFF"></path>
        </g>
    </g>
</svg>