<?xml version="1.0" encoding="UTF-8"?>
<svg width="77px" height="69px" viewBox="0 0 77 69" version="1.1" xmlns="http://www.w3.org/2000/svg" xmlns:xlink="http://www.w3.org/1999/xlink">
    <!-- Generator: Sketch 43.2 (39069) - http://www.bohemiancoding.com/sketch -->
    <title>Group 3</title>
    <desc>Created with Sketch.</desc>
    <defs></defs>
    <g id="Page-1" stroke="none" stroke-width="1" fill="none" fill-rule="evenodd">
        <g id="Group-3" transform="translate(0.000000, -1.000000)">
            <path d="M38.005,69.856 C37.794,69.856 37.604,69.724 37.534,69.522 L36.285,65.973 C35.245,65.978 34.22,65.911 33.187,65.782 L31.435,69.147 C31.333,69.341 31.114,69.447 30.898,69.406 C29.566,69.154 28.21,68.787 26.866,68.314 C26.652,68.239 26.516,68.029 26.534,67.803 L26.831,64.076 C25.818,63.649 24.843,63.162 23.926,62.621 L20.933,64.995 C20.763,65.132 20.522,65.139 20.341,65.017 C19.235,64.263 18.164,63.414 17.156,62.494 C16.986,62.339 16.943,62.088 17.054,61.886 L18.83,58.623 C18.014,57.785 17.251,56.879 16.556,55.924 L12.852,56.878 C12.644,56.935 12.42,56.845 12.304,56.66 C11.612,55.56 10.994,54.4 10.464,53.213 C10.37,53.002 10.433,52.753 10.617,52.612 L13.545,50.37 C13.082,49.155 12.715,47.904 12.452,46.643 L8.677,46.005 C8.437,45.964 8.261,45.756 8.261,45.512 C8.097,44.37 8.008,43.125 8,41.868 C7.999,41.635 8.158,41.432 8.384,41.378 L11.966,40.524 C12.032,39.112 12.224,37.695 12.538,36.301 L9.366,34.196 C9.183,34.075 9.101,33.85 9.162,33.64 C9.48,32.552 9.887,31.434 10.373,30.315 C10.465,30.102 10.691,29.982 10.923,30.023 L14.552,30.701 C15.237,29.352 16.061,28.05 17.006,26.822 L14.977,23.629 C14.858,23.442 14.876,23.199 15.023,23.032 C15.78,22.168 16.583,21.355 17.408,20.616 C17.579,20.462 17.835,20.445 18.025,20.577 L21.073,22.677 C22.325,21.677 23.685,20.797 25.121,20.058 L24.573,16.348 C24.54,16.125 24.66,15.908 24.866,15.817 C25.879,15.37 26.923,14.981 27.97,14.659 C28.188,14.591 28.424,14.682 28.543,14.876 L30.488,18.06 C31.304,17.86 32.112,17.704 32.895,17.595 C33.675,17.485 34.477,17.416 35.335,17.384 L36.335,13.791 C36.396,13.571 36.562,13.412 36.828,13.425 C37.92,13.448 39.03,13.537 40.125,13.69 C40.349,13.721 40.523,13.897 40.552,14.12 L41.043,17.841 C42.747,18.185 44.411,18.71 45.995,19.405 C46.248,19.517 46.363,19.812 46.252,20.064 C46.141,20.316 45.847,20.431 45.593,20.321 C43.969,19.608 42.256,19.081 40.503,18.755 C40.29,18.715 40.126,18.543 40.098,18.329 L39.611,14.63 C38.807,14.53 37.997,14.464 37.194,14.435 L36.199,18.007 C36.141,18.219 35.95,18.368 35.729,18.373 C34.769,18.396 33.887,18.465 33.034,18.585 C32.173,18.705 31.28,18.884 30.379,19.118 C30.162,19.173 29.941,19.082 29.827,18.895 L27.894,15.731 C27.128,15.978 26.365,16.264 25.618,16.581 L26.163,20.268 C26.195,20.482 26.085,20.693 25.891,20.789 C24.288,21.584 22.782,22.559 21.416,23.687 C21.242,23.829 20.996,23.839 20.814,23.713 L17.784,21.625 C17.18,22.184 16.59,22.782 16.023,23.412 L18.039,26.584 C18.153,26.763 18.141,26.995 18.009,27.162 C16.936,28.518 16.018,29.971 15.281,31.481 C15.183,31.684 14.962,31.793 14.74,31.754 L11.134,31.08 C10.784,31.917 10.48,32.751 10.228,33.568 L13.379,35.66 C13.554,35.776 13.638,35.989 13.589,36.193 C13.214,37.755 13,39.352 12.951,40.938 C12.943,41.164 12.786,41.356 12.567,41.409 L9.005,42.258 C9.025,43.215 9.093,44.162 9.21,45.081 L12.958,45.714 C13.164,45.748 13.326,45.907 13.365,46.112 C13.644,47.55 14.062,48.977 14.612,50.353 C14.695,50.562 14.629,50.799 14.452,50.935 L11.541,53.164 C11.962,54.073 12.438,54.963 12.958,55.818 L16.638,54.871 C16.837,54.821 17.051,54.897 17.171,55.066 C17.96,56.182 18.844,57.23 19.8,58.183 C19.957,58.339 19.992,58.581 19.886,58.776 L18.121,62.018 C18.915,62.722 19.747,63.381 20.602,63.981 L23.576,61.623 C23.739,61.492 23.968,61.478 24.146,61.588 C25.205,62.233 26.349,62.806 27.546,63.289 C27.748,63.371 27.874,63.575 27.856,63.793 L27.562,67.496 C28.616,67.851 29.675,68.138 30.721,68.353 L32.462,65.009 C32.56,64.822 32.768,64.719 32.975,64.745 C34.193,64.915 35.421,64.988 36.63,64.97 C36.812,64.948 37.039,65.101 37.11,65.304 L38.351,68.831 C38.949,68.785 39.491,68.73 39.997,68.659 C40.508,68.587 41.035,68.496 41.633,68.375 L41.87,64.639 C41.883,64.424 42.032,64.242 42.24,64.187 C43.423,63.872 44.584,63.465 45.69,62.978 C45.883,62.892 46.11,62.938 46.255,63.091 L48.844,65.831 C49.835,65.312 50.775,64.747 51.65,64.144 L50.355,60.664 C50.28,60.46 50.345,60.231 50.517,60.096 C51.539,59.298 52.482,58.434 53.321,57.528 C53.463,57.375 53.687,57.327 53.879,57.406 L57.383,58.862 C58.053,58.038 58.675,57.176 59.237,56.293 L56.655,53.658 C56.5,53.5 56.468,53.258 56.576,53.064 C57.236,51.883 57.799,50.633 58.25,49.349 C58.341,49.089 58.627,48.95 58.887,49.043 C59.147,49.134 59.284,49.419 59.193,49.68 C58.765,50.899 58.24,52.09 57.629,53.223 L60.227,55.875 C60.388,56.039 60.417,56.292 60.296,56.487 C59.593,57.629 58.792,58.739 57.917,59.787 C57.777,59.955 57.543,60.012 57.341,59.928 L53.815,58.462 C53.083,59.23 52.279,59.965 51.419,60.657 L52.722,64.159 C52.801,64.371 52.728,64.609 52.543,64.74 C51.445,65.522 50.242,66.246 48.965,66.894 C48.769,66.991 48.528,66.952 48.376,66.791 L45.769,64.032 C44.824,64.433 43.843,64.776 42.845,65.058 L42.607,68.818 C42.593,69.043 42.431,69.23 42.211,69.276 C41.433,69.441 40.773,69.56 40.135,69.649 C39.5,69.737 38.814,69.805 38.038,69.856 L38.005,69.856" id="Fill-194" fill="#5C6165"></path>
            <path d="M53.935,44.538 C52.618,53.052 45.257,59.569 36.374,59.569 C26.56,59.569 18.603,51.613 18.603,41.799 C18.603,31.984 26.56,24.028 36.374,24.028 C38.825,24.028 41.161,24.524 43.285,25.422 L40.203,28.55 C38.346,27.991 36.34,27.813 34.292,28.099 C26.701,29.155 21.403,36.165 22.457,43.755 C23.517,51.347 30.527,56.644 38.12,55.588 C43.293,54.868 47.404,51.377 49.161,46.823 L0.357377049,0.832786885" id="Fill-196" fill="#EDF0F0"></path>
            <path d="M36.374,60.069 C26.3,60.069 18.104,51.873 18.104,41.799 C18.104,31.724 26.3,23.528 36.374,23.528 C38.837,23.528 41.228,24.01 43.479,24.961 C43.632,25.026 43.743,25.162 43.775,25.324 C43.808,25.487 43.758,25.655 43.641,25.773 L40.559,28.901 C40.429,29.034 40.235,29.083 40.059,29.029 C38.208,28.472 36.291,28.326 34.361,28.594 C27.055,29.611 21.937,36.381 22.952,43.687 C23.972,50.991 30.739,56.105 38.051,55.093 C42.864,54.422 46.942,51.185 48.694,46.643 C48.793,46.385 49.082,46.257 49.341,46.356 C49.598,46.456 49.727,46.745 49.627,47.003 C47.745,51.883 43.361,55.363 38.188,56.083 C30.334,57.17 23.058,51.675 21.962,43.825 C20.871,35.973 26.371,28.696 34.223,27.603 C36.194,27.329 38.156,27.458 40.056,27.987 L42.4,25.608 C40.476,24.891 38.453,24.528 36.374,24.528 C26.851,24.528 19.104,32.275 19.104,41.799 C19.104,51.322 26.851,59.069 36.374,59.069 C44.815,59.069 52.152,52.789 53.441,44.461 C53.483,44.188 53.737,44.004 54.012,44.043 C54.284,44.086 54.471,44.341 54.429,44.614 C53.043,53.569 45.45,60.069 36.374,60.069" id="Fill-197" fill="#5C6165"></path>
            <path d="M66.294,32.855 C65.382,37.442 60.919,40.416 56.332,39.5 C51.745,38.584 48.767,34.121 49.683,29.534 C50.599,24.947 55.061,21.973 59.649,22.887 C64.236,23.805 67.209,28.268 66.294,32.855 Z M71.607,30.372 C71.575,29.854 71.52,29.34 71.433,28.833 L74.903,25.807 C74.457,24.412 73.835,23.094 73.073,21.863 L68.54,22.525 C68.214,22.124 67.849,21.743 67.473,21.383 L68.497,16.905 C67.347,16.056 66.078,15.331 64.716,14.77 L61.415,17.989 C61.164,17.924 60.919,17.853 60.669,17.799 C60.412,17.75 60.156,17.723 59.895,17.69 L58.092,13.446 C56.616,13.438 55.172,13.623 53.772,13.964 L52.998,18.488 C52.514,18.681 52.039,18.888 51.582,19.136 L47.649,16.786 C46.472,17.625 45.393,18.605 44.451,19.719 L46.488,23.851 C46.211,24.282 45.96,24.734 45.726,25.202 L41.15,25.611 C40.926,26.297 40.725,26.989 40.578,27.716 C40.436,28.438 40.349,29.16 40.3,29.876 L44.369,32.017 C44.402,32.535 44.457,33.047 44.543,33.556 L41.073,36.582 C41.52,37.972 42.147,39.295 42.909,40.526 L47.436,39.864 C47.763,40.265 48.128,40.646 48.499,41.006 L47.48,45.481 C48.635,46.333 49.899,47.058 51.266,47.619 L54.562,44.4 C54.813,44.462 55.058,44.536 55.314,44.59 C55.57,44.636 55.815,44.667 56.076,44.699 L57.885,48.943 C59.361,48.951 60.81,48.766 62.205,48.425 L62.973,43.901 C63.463,43.708 63.943,43.501 64.395,43.253 L68.328,45.603 C69.505,44.759 70.589,43.784 71.531,42.67 L69.494,38.538 C69.761,38.105 70.022,37.655 70.251,37.187 L74.827,36.778 C75.056,36.092 75.257,35.395 75.399,34.673 C75.546,33.948 75.628,33.229 75.682,32.513 L71.607,30.372 L71.607,30.372 Z" id="Fill-198" fill="#3F99C8"></path>
            <path d="M57.99,23.223 C54.267,23.223 50.929,25.848 50.173,29.632 C49.757,31.72 50.178,33.845 51.36,35.616 C52.542,37.388 54.343,38.593 56.43,39.009 C58.52,39.425 60.647,39.003 62.418,37.822 C64.187,36.641 65.389,34.842 65.803,32.757 C66.664,28.447 63.858,24.239 59.55,23.377 C59.027,23.273 58.505,23.223 57.99,23.223 Z M58.011,40.166 C57.421,40.166 56.827,40.108 56.234,39.99 C53.885,39.521 51.858,38.164 50.528,36.171 C49.198,34.178 48.724,31.786 49.193,29.437 C50.16,24.588 54.893,21.428 59.746,22.397 C64.595,23.367 67.752,28.102 66.784,32.952 C66.317,35.299 64.964,37.324 62.974,38.653 C61.482,39.65 59.766,40.166 58.011,40.166 Z M54.562,43.9 C54.602,43.9 54.642,43.905 54.682,43.914 L54.973,43.99 C55.12,44.03 55.267,44.069 55.418,44.102 C55.635,44.141 55.858,44.168 56.094,44.198 C56.27,44.22 56.466,44.339 56.536,44.503 L58.214,48.441 C59.39,48.424 60.582,48.281 61.767,48.014 L62.48,43.817 C62.509,43.646 62.626,43.501 62.789,43.437 C63.176,43.283 63.68,43.074 64.154,42.814 C64.31,42.73 64.5,42.733 64.651,42.824 L68.3,45.004 C69.284,44.272 70.169,43.463 70.936,42.594 L69.045,38.759 C68.969,38.605 68.978,38.422 69.068,38.276 C69.378,37.773 69.611,37.357 69.801,36.968 C69.878,36.81 70.032,36.705 70.206,36.689 L74.454,36.31 C74.657,35.672 74.803,35.115 74.908,34.577 C75.018,34.038 75.098,33.468 75.157,32.802 L71.375,30.814 C71.22,30.733 71.12,30.578 71.108,30.404 C71.074,29.865 71.02,29.378 70.94,28.918 C70.911,28.746 70.973,28.571 71.104,28.456 L74.324,25.649 C73.943,24.537 73.438,23.448 72.817,22.405 L68.613,23.019 C68.44,23.043 68.264,22.977 68.153,22.841 C67.866,22.49 67.531,22.131 67.127,21.745 C67,21.623 66.946,21.443 66.985,21.272 L67.936,17.116 C66.96,16.423 65.917,15.834 64.828,15.36 L61.764,18.348 C61.638,18.47 61.457,18.517 61.289,18.474 L61.073,18.416 C60.903,18.371 60.733,18.325 60.562,18.287 C60.376,18.252 60.178,18.228 59.976,18.204 L59.833,18.186 C59.656,18.164 59.504,18.049 59.435,17.885 L57.762,13.948 C56.591,13.965 55.398,14.108 54.208,14.375 L53.491,18.572 C53.461,18.744 53.345,18.887 53.184,18.952 C52.625,19.176 52.204,19.368 51.82,19.576 C51.665,19.659 51.477,19.656 51.326,19.565 L47.675,17.384 C46.707,18.103 45.824,18.912 45.045,19.795 L46.937,23.63 C47.015,23.788 47.004,23.975 46.908,24.122 C46.659,24.509 46.418,24.935 46.173,25.426 C46.095,25.581 45.943,25.685 45.77,25.7 L41.525,26.079 C41.319,26.737 41.175,27.282 41.068,27.815 C40.957,28.381 40.876,28.964 40.823,29.586 L44.602,31.575 C44.756,31.656 44.857,31.812 44.868,31.985 C44.902,32.521 44.957,33.007 45.036,33.472 C45.065,33.644 45.004,33.818 44.872,33.933 L41.653,36.74 C42.034,37.848 42.541,38.937 43.165,39.984 L47.364,39.37 C47.536,39.345 47.712,39.412 47.824,39.548 C48.105,39.894 48.44,40.253 48.847,40.647 C48.972,40.769 49.025,40.947 48.986,41.117 L48.041,45.27 C49.025,45.969 50.07,46.559 51.154,47.029 L54.212,44.042 C54.307,43.95 54.433,43.9 54.562,43.9 Z M57.979,49.443 C57.749,49.442 57.515,49.353 57.425,49.139 L55.729,45.159 C55.552,45.136 55.391,45.112 55.225,45.082 C55.041,45.043 54.878,45 54.715,44.957 L54.709,44.955 L51.616,47.977 C51.473,48.117 51.26,48.158 51.076,48.082 C49.709,47.521 48.4,46.781 47.183,45.883 C47.023,45.765 46.948,45.564 46.993,45.37 L47.949,41.166 C47.683,40.9 47.446,40.647 47.233,40.4 L42.981,41.021 C42.786,41.047 42.589,40.959 42.484,40.789 C41.68,39.491 41.046,38.127 40.597,36.735 C40.536,36.545 40.594,36.336 40.745,36.205 L44.006,33.361 C43.957,33.031 43.918,32.69 43.89,32.33 L40.067,30.318 C39.892,30.226 39.788,30.039 39.801,29.842 C39.854,29.054 39.948,28.327 40.087,27.62 C40.22,26.962 40.401,26.296 40.674,25.456 C40.736,25.266 40.905,25.131 41.105,25.113 L45.406,24.728 C45.575,24.403 45.744,24.103 45.916,23.822 L44.002,19.94 C43.914,19.762 43.94,19.548 44.069,19.397 C45.02,18.272 46.128,17.256 47.358,16.378 C47.52,16.263 47.734,16.254 47.905,16.356 L51.598,18.563 C51.882,18.419 52.19,18.28 52.552,18.129 L53.279,13.879 C53.312,13.683 53.459,13.525 53.653,13.478 C55.139,13.117 56.626,12.93 58.095,12.946 C58.294,12.947 58.474,13.067 58.552,13.251 L60.242,17.229 C60.417,17.251 60.589,17.275 60.762,17.308 C60.94,17.346 61.104,17.39 61.269,17.434 L64.367,14.412 C64.511,14.273 64.724,14.231 64.907,14.308 C66.281,14.874 67.589,15.613 68.794,16.503 C68.954,16.622 69.028,16.823 68.984,17.017 L68.022,21.221 C68.29,21.485 68.528,21.739 68.744,21.99 L73,21.368 C73.199,21.34 73.393,21.431 73.498,21.6 C74.298,22.893 74.932,24.257 75.379,25.655 C75.44,25.845 75.382,26.053 75.232,26.184 L71.971,29.028 C72.02,29.356 72.058,29.697 72.086,30.059 L75.915,32.071 C76.091,32.163 76.196,32.352 76.181,32.551 C76.116,33.403 76.023,34.109 75.889,34.772 C75.759,35.435 75.572,36.124 75.302,36.937 C75.239,37.125 75.07,37.259 74.872,37.276 L70.572,37.66 C70.427,37.94 70.261,38.235 70.063,38.563 L71.979,42.449 C72.067,42.627 72.041,42.841 71.913,42.993 C70.979,44.097 69.871,45.112 68.619,46.01 C68.457,46.126 68.242,46.135 68.071,46.033 L64.379,43.826 C64.044,43.996 63.712,44.141 63.419,44.261 L62.698,48.509 C62.664,48.706 62.517,48.864 62.323,48.911 C60.876,49.264 59.415,49.443 57.979,49.443 L57.979,49.443 Z" id="Fill-199" fill="#5C6165"></path>
            <path d="M57.988,33.876 C57.712,33.876 57.488,33.652 57.488,33.376 L57.488,29.013 C57.488,28.737 57.712,28.513 57.988,28.513 C58.265,28.513 58.488,28.737 58.488,29.013 L58.488,33.376 C58.488,33.652 58.265,33.876 57.988,33.876" id="Fill-200" fill="#5C6165"></path>
            <path d="M60.17,31.695 L55.807,31.695 C55.531,31.695 55.307,31.471 55.307,31.195 C55.307,30.918 55.531,30.695 55.807,30.695 L60.17,30.695 C60.446,30.695 60.67,30.918 60.67,31.195 C60.67,31.471 60.446,31.695 60.17,31.695" id="Fill-201" fill="#5C6165"></path>
        </g>
    </g>
</svg>