<?xml version="1.0" encoding="UTF-8"?>
<svg width="72px" height="62px" viewBox="0 0 72 62" version="1.1" xmlns="http://www.w3.org/2000/svg" xmlns:xlink="http://www.w3.org/1999/xlink">
    <!-- Generator: Sketch 43.2 (39069) - http://www.bohemiancoding.com/sketch -->
    <title>Group 8</title>
    <desc>Created with Sketch.</desc>
    <defs></defs>
    <g id="Page-1" stroke="none" stroke-width="1" fill="none" fill-rule="evenodd">
        <g id="Group-8">
            <path d="M32.939,22.721 C27.33,22.721 22.766,27.284 22.766,32.895 C22.766,38.504 27.33,43.067 32.939,43.067 C38.549,43.067 43.113,38.504 43.113,32.895 C43.113,27.284 38.549,22.721 32.939,22.721 Z M32.939,44.067 C26.778,44.067 21.766,39.056 21.766,32.895 C21.766,26.733 26.778,21.721 32.939,21.721 C39.1,21.721 44.113,26.733 44.113,32.895 C44.113,39.056 39.1,44.067 32.939,44.067 L32.939,44.067 Z" id="Fill-1" fill="#5C6165"></path>
            <path d="M38.655,32.894 C38.655,36.051 36.096,38.609 32.939,38.609 C29.783,38.609 27.224,36.051 27.224,32.894 C27.224,29.738 29.783,27.179 32.939,27.179 C36.096,27.179 38.655,29.738 38.655,32.894" id="Fill-2" fill="#3F99C8"></path>
            <path d="M32.939,27.679 C30.064,27.679 27.724,30.019 27.724,32.895 C27.724,35.77 30.064,38.109 32.939,38.109 C35.815,38.109 38.154,35.77 38.154,32.895 C38.154,30.019 35.815,27.679 32.939,27.679 Z M32.939,39.109 C29.512,39.109 26.724,36.321 26.724,32.895 C26.724,29.467 29.512,26.679 32.939,26.679 C36.366,26.679 39.154,29.467 39.154,32.895 C39.154,36.321 36.366,39.109 32.939,39.109 L32.939,39.109 Z" id="Fill-3" fill="#5C6165"></path>
            <path d="M42.016,6.561 C42.016,9.768 39.416,12.368 36.209,12.368 C33.002,12.368 30.402,9.768 30.402,6.561 C30.402,3.354 33.002,0.754 36.209,0.754 C39.416,0.754 42.016,3.354 42.016,6.561" id="Fill-4" fill="#EDF0F0"></path>
            <path d="M36.209,1.255 C33.283,1.255 30.902,3.636 30.902,6.562 C30.902,9.487 33.283,11.868 36.209,11.868 C39.135,11.868 41.516,9.487 41.516,6.562 C41.516,3.636 39.135,1.255 36.209,1.255 Z M36.209,12.868 C32.732,12.868 29.902,10.039 29.902,6.562 C29.902,3.084 32.732,0.255 36.209,0.255 C39.687,0.255 42.516,3.084 42.516,6.562 C42.516,10.039 39.687,12.868 36.209,12.868 L36.209,12.868 Z" id="Fill-5" fill="#5C6165"></path>
            <path d="M70.562,19.251 C70.562,22.458 67.963,25.058 64.756,25.058 C61.549,25.058 58.949,22.458 58.949,19.251 C58.949,16.044 61.549,13.445 64.756,13.445 C67.963,13.445 70.562,16.044 70.562,19.251" id="Fill-6" fill="#EDF0F0"></path>
            <path d="M64.756,13.944 C61.83,13.944 59.449,16.325 59.449,19.251 C59.449,22.177 61.83,24.558 64.756,24.558 C67.682,24.558 70.063,22.177 70.063,19.251 C70.063,16.325 67.682,13.944 64.756,13.944 Z M64.756,25.558 C61.278,25.558 58.449,22.728 58.449,19.251 C58.449,15.773 61.278,12.944 64.756,12.944 C68.233,12.944 71.063,15.773 71.063,19.251 C71.063,22.728 68.233,25.558 64.756,25.558 L64.756,25.558 Z" id="Fill-7" fill="#5C6165"></path>
            <path d="M62.5,54.937 C62.5,58.144 59.9,60.744 56.693,60.744 C53.486,60.744 50.887,58.144 50.887,54.937 C50.887,51.73 53.486,49.13 56.693,49.13 C59.9,49.13 62.5,51.73 62.5,54.937" id="Fill-8" fill="#EDF0F0"></path>
            <path d="M56.693,49.63 C53.767,49.63 51.387,52.011 51.387,54.938 C51.387,57.863 53.767,60.244 56.693,60.244 C59.62,60.244 62,57.863 62,54.938 C62,52.011 59.62,49.63 56.693,49.63 Z M56.693,61.244 C53.216,61.244 50.387,58.415 50.387,54.938 C50.387,51.459 53.216,48.63 56.693,48.63 C60.171,48.63 63,51.459 63,54.938 C63,58.415 60.171,61.244 56.693,61.244 L56.693,61.244 Z" id="Fill-9" fill="#5C6165"></path>
            <path d="M12.276,52.149 C12.276,55.356 9.676,57.956 6.469,57.956 C3.262,57.956 0.662,55.356 0.662,52.149 C0.662,48.942 3.262,46.342 6.469,46.342 C9.676,46.342 12.276,48.942 12.276,52.149" id="Fill-10" fill="#EDF0F0"></path>
            <path d="M6.469,46.842 C3.543,46.842 1.162,49.223 1.162,52.149 C1.162,55.075 3.543,57.456 6.469,57.456 C9.395,57.456 11.775,55.075 11.775,52.149 C11.775,49.223 9.395,46.842 6.469,46.842 Z M6.469,58.456 C2.991,58.456 0.162,55.627 0.162,52.149 C0.162,48.671 2.991,45.842 6.469,45.842 C9.946,45.842 12.775,48.671 12.775,52.149 C12.775,55.627 9.946,58.456 6.469,58.456 L6.469,58.456 Z" id="Fill-11" fill="#5C6165"></path>
            <path d="M18.082,25.058 C18.082,28.265 15.483,30.865 12.276,30.865 C9.069,30.865 6.469,28.265 6.469,25.058 C6.469,21.851 9.069,19.251 12.276,19.251 C15.483,19.251 18.082,21.851 18.082,25.058" id="Fill-12" fill="#EDF0F0"></path>
            <path d="M12.275,19.751 C9.349,19.751 6.969,22.132 6.969,25.058 C6.969,27.984 9.349,30.365 12.275,30.365 C15.202,30.365 17.582,27.984 17.582,25.058 C17.582,22.132 15.202,19.751 12.275,19.751 Z M12.275,31.365 C8.798,31.365 5.969,28.536 5.969,25.058 C5.969,21.58 8.798,18.751 12.275,18.751 C15.753,18.751 18.582,21.58 18.582,25.058 C18.582,28.536 15.753,31.365 12.275,31.365 L12.275,31.365 Z" id="Fill-13" fill="#5C6165"></path>
            <path d="M34.261,22.336 C34.241,22.336 34.221,22.335 34.201,22.332 C33.927,22.3 33.731,22.051 33.764,21.776 L34.895,12.309 C34.928,12.035 35.177,11.833 35.451,11.872 C35.725,11.904 35.921,12.153 35.888,12.428 L34.757,21.895 C34.727,22.149 34.511,22.336 34.261,22.336" id="Fill-14" fill="#5C6165"></path>
            <path d="M42.783,29.263 C42.588,29.263 42.402,29.147 42.322,28.956 C42.215,28.701 42.335,28.408 42.59,28.302 L59.322,21.28 C59.577,21.175 59.87,21.294 59.977,21.548 C60.083,21.803 59.964,22.096 59.709,22.202 L42.977,29.224 C42.914,29.25 42.848,29.263 42.783,29.263" id="Fill-15" fill="#5C6165"></path>
            <path d="M52.413,51.522 C52.294,51.522 52.173,51.48 52.078,51.394 L40.26,40.7 C40.056,40.515 40.04,40.198 40.225,39.993 C40.41,39.789 40.727,39.774 40.931,39.958 L52.749,50.651 C52.953,50.837 52.969,51.153 52.784,51.358 C52.685,51.467 52.549,51.522 52.413,51.522" id="Fill-16" fill="#5C6165"></path>
            <path d="M22.803,30.046 C22.742,30.046 22.681,30.035 22.622,30.012 L17.358,27.965 C17.101,27.865 16.973,27.575 17.073,27.317 C17.172,27.06 17.463,26.932 17.72,27.033 L22.984,29.08 C23.241,29.18 23.369,29.47 23.269,29.727 C23.192,29.925 23.003,30.046 22.803,30.046" id="Fill-17" fill="#5C6165"></path>
            <path d="M11.423,49.63 C11.272,49.63 11.123,49.563 11.025,49.433 C10.858,49.213 10.9,48.899 11.119,48.732 L24.073,38.86 C24.294,38.691 24.608,38.734 24.774,38.955 C24.941,39.175 24.899,39.488 24.68,39.655 L11.726,49.527 C11.635,49.597 11.528,49.63 11.423,49.63" id="Fill-18" fill="#5C6165"></path>
            <path d="M30.41,54.883 C28.716,54.883 27.338,56.262 27.338,57.956 C27.338,59.65 28.716,61.028 30.41,61.028 C32.104,61.028 33.483,59.65 33.483,57.956 C33.483,56.262 32.104,54.883 30.41,54.883 Z M30.41,62.028 C28.165,62.028 26.338,60.201 26.338,57.956 C26.338,55.71 28.165,53.883 30.41,53.883 C32.656,53.883 34.483,55.71 34.483,57.956 C34.483,60.201 32.656,62.028 30.41,62.028 L30.41,62.028 Z" id="Fill-19" fill="#5C6165"></path>
            <path d="M31.504,45.98 C31.49,45.98 31.475,45.978 31.461,45.977 C31.186,45.954 30.982,45.712 31.005,45.437 L31.177,43.444 C31.2,43.169 31.439,42.967 31.718,42.989 C31.993,43.013 32.197,43.255 32.173,43.53 L32.001,45.522 C31.979,45.783 31.761,45.98 31.504,45.98 Z M30.738,54.883 C30.724,54.883 30.71,54.882 30.695,54.881 C30.42,54.857 30.216,54.615 30.24,54.34 L30.749,48.426 C30.772,48.15 31.008,47.947 31.29,47.971 C31.565,47.994 31.769,48.236 31.745,48.512 L31.236,54.426 C31.213,54.687 30.995,54.883 30.738,54.883 L30.738,54.883 Z" id="Fill-20" fill="#5C6165"></path>
            <path d="M53.635,35.852 C53.212,35.852 52.791,35.939 52.393,36.116 C51.642,36.448 51.065,37.053 50.77,37.818 C50.159,39.398 50.948,41.182 52.528,41.792 C54.107,42.403 55.891,41.614 56.503,40.033 C57.113,38.453 56.324,36.671 54.744,36.06 C54.384,35.921 54.009,35.852 53.635,35.852 Z M53.631,42.999 C53.144,42.999 52.649,42.911 52.168,42.726 C50.074,41.915 49.028,39.552 49.837,37.458 C50.229,36.443 50.993,35.642 51.988,35.201 C52.983,34.761 54.089,34.736 55.104,35.127 C57.198,35.937 58.244,38.299 57.435,40.394 C56.812,42.008 55.266,42.999 53.631,42.999 L53.631,42.999 Z" id="Fill-21" fill="#5C6165"></path>
            <path d="M50.063,38.385 C50.017,38.385 49.969,38.378 49.922,38.365 L43.048,36.361 C42.783,36.283 42.631,36.006 42.708,35.741 C42.785,35.477 43.059,35.327 43.329,35.4 L50.203,37.404 C50.468,37.482 50.62,37.76 50.543,38.024 C50.479,38.243 50.279,38.385 50.063,38.385" id="Fill-22" fill="#5C6165"></path>
            <path d="M9.527,2.351 C8.74,2.351 7.954,2.65 7.354,3.249 C6.157,4.447 6.157,6.396 7.354,7.595 C8.516,8.755 10.539,8.755 11.7,7.595 C12.898,6.396 12.898,4.447 11.7,3.249 C11.101,2.65 10.314,2.351 9.527,2.351 Z M9.527,9.495 C8.44,9.495 7.417,9.071 6.647,8.302 C5.06,6.714 5.06,4.13 6.647,2.542 C8.235,0.954 10.819,0.954 12.407,2.542 C13.995,4.13 13.995,6.714 12.407,8.302 C11.638,9.071 10.615,9.495 9.527,9.495 L9.527,9.495 Z" id="Fill-23" fill="#5C6165"></path>
            <path d="M13.924,10.628 C13.784,10.628 13.644,10.568 13.545,10.453 L12.243,8.935 C12.063,8.727 12.087,8.411 12.296,8.231 C12.507,8.053 12.823,8.076 13.001,8.285 L14.304,9.803 C14.483,10.012 14.46,10.327 14.25,10.508 C14.156,10.588 14.04,10.628 13.924,10.628 Z M23.043,21.252 C22.902,21.252 22.762,21.192 22.663,21.077 L14.848,11.971 C14.668,11.762 14.692,11.446 14.901,11.266 C15.111,11.089 15.428,11.111 15.607,11.32 L23.422,20.427 C23.602,20.636 23.578,20.951 23.368,21.132 C23.274,21.212 23.158,21.252 23.043,21.252 Z M26.299,25.046 C26.158,25.046 26.019,24.986 25.919,24.871 L24.617,23.353 C24.437,23.145 24.461,22.829 24.671,22.649 C24.879,22.471 25.196,22.494 25.376,22.703 L26.678,24.221 C26.858,24.43 26.834,24.745 26.625,24.925 C26.53,25.006 26.415,25.046 26.299,25.046 L26.299,25.046 Z" id="Fill-24" fill="#5C6165"></path>
        </g>
    </g>
</svg>