<?xml version="1.0" encoding="UTF-8"?>
<svg width="456px" height="512px" viewBox="0 0 456 512" version="1.1" xmlns="http://www.w3.org/2000/svg" xmlns:xlink="http://www.w3.org/1999/xlink">
    <!-- Generator: Sketch 43.2 (39069) - http://www.bohemiancoding.com/sketch -->
    <title>mobile-phone</title>
    <desc>Created with Sketch.</desc>
    <defs></defs>
    <g id="Icons" stroke="none" stroke-width="1" fill="none" fill-rule="evenodd">
        <g id="mobile-phone">
            <g id="Capa_1">
                <g id="Group">
                    <path d="M271,432 L17,432 C16.448,432 16,431.552 16,431 L16,81 C16,80.448 16.448,80 17,80 L271,80 C271.552,80 272,80.448 272,81 L272,431 C272,431.552 271.552,432 271,432 Z" id="Shape" fill="#5C546A"></path>
                    <rect id="Rectangle-path" fill="#5C546A" x="88" y="24" width="88" height="32"></rect>
                    <rect id="Rectangle-path" fill="#5C546A" x="112" y="440" width="64" height="64"></rect>
                    <path d="M248,0 L40,0 C17.945,0 0,17.945 0,40 L0,472 C0,494.055 17.945,512 40,512 L248,512 C270.055,512 288,494.055 288,472 L288,40 C288,17.945 270.055,0 248,0 Z M128,32 L160,32 C164.422,32 168,35.578 168,40 C168,44.422 164.422,48 160,48 L128,48 C123.578,48 120,44.422 120,40 C120,35.578 123.578,32 128,32 Z M98.32,34.32 C101.195,31.437 106.718,31.359 109.679,34.32 C111.117,35.836 111.999,37.836 111.999,40 C111.999,42.156 111.116,44.156 109.679,45.68 C108.156,47.117 106.156,48 104,48 C101.836,48 99.836,47.117 98.32,45.68 C96.875,44.156 96,42.156 96,40 C96,37.836 96.875,35.836 98.32,34.32 Z M144,496 C130.77,496 120,485.23 120,472 C120,458.77 130.77,448 144,448 C157.23,448 168,458.77 168,472 C168,485.23 157.23,496 144,496 Z M264,432 L24,432 C19.582,432 16,428.418 16,424 L16,88 C16,83.582 19.582,80 24,80 L264,80 C268.418,80 272,83.582 272,88 L272,424 C272,428.418 268.418,432 264,432 Z" id="Shape" fill="#8A8895"></path>
                    <path d="M424,408 L72,408 C54.327,408 40,393.673 40,376 L40,136 C40,118.327 54.327,104 72,104 L424,104 C441.673,104 456,118.327 456,136 L456,376 C456,393.673 441.673,408 424,408 Z" id="Shape" fill="#5D647F"></path>
                    <path d="M184,232 L104,232 C95.163,232 88,224.837 88,216 L88,168 C88,159.163 95.163,152 104,152 L184,152 C192.837,152 200,159.163 200,168 L200,216 C200,224.837 192.837,232 184,232 Z" id="Shape" fill="#FFD100"></path>
                    <path d="M128,320 L104,320 C95.163,320 88,312.837 88,304 L88,304 C88,295.163 95.163,288 104,288 L128,288 C136.837,288 144,295.163 144,304 L144,304 C144,312.837 136.837,320 128,320 Z" id="Shape" fill="#B8BAC0"></path>
                    <path d="M216,320 L192,320 C183.163,320 176,312.837 176,304 L176,304 C176,295.163 183.163,288 192,288 L216,288 C224.837,288 232,295.163 232,304 L232,304 C232,312.837 224.837,320 216,320 Z" id="Shape" fill="#B8BAC0"></path>
                    <path d="M304,320 L280,320 C271.163,320 264,312.837 264,304 L264,304 C264,295.163 271.163,288 280,288 L304,288 C312.837,288 320,295.163 320,304 L320,304 C320,312.837 312.837,320 304,320 Z" id="Shape" fill="#B8BAC0"></path>
                    <path d="M392,320 L368,320 C359.163,320 352,312.837 352,304 L352,304 C352,295.163 359.163,288 368,288 L392,288 C400.837,288 408,295.163 408,304 L408,304 C408,312.837 400.837,320 392,320 Z" id="Shape" fill="#B8BAC0"></path>
                    <path d="M224.8,368 L95.2,368 C91.22,368 88,364.418 88,360 C88,355.582 91.22,352 95.2,352 L224.8,352 C228.78,352 232,355.582 232,360 C232,364.418 228.78,368 224.8,368 Z" id="Shape" fill="#8A8895"></path>
                    <path d="M312,368 L256,368 C251.578,368 248,364.418 248,360 C248,355.582 251.578,352 256,352 L312,352 C316.422,352 320,355.582 320,360 C320,364.418 316.422,368 312,368 Z" id="Shape" fill="#8A8895"></path>
                    <path d="M344,216.005 C336.702,225.718 325.085,232 312.001,232 C289.91,232 272.001,214.091 272.001,192 C272.001,169.909 289.91,152 312.001,152 C325.075,152 336.683,158.272 343.982,167.971" id="Shape" fill="#FF4F19"></path>
                    <circle id="Oval" fill="#FFD100" cx="368" cy="192" r="40"></circle>
                    <polygon id="Shape" fill="#FF9500" points="128 184 128 152 112 152 112 232 128 232 128 200 200 200 200 184"></polygon>
                </g>
            </g>
        </g>
    </g>
</svg>