<?xml version="1.0" encoding="UTF-8"?>
<svg width="369px" height="133px" viewBox="0 0 369 133" version="1.1" xmlns="http://www.w3.org/2000/svg" xmlns:xlink="http://www.w3.org/1999/xlink">
    <!-- Generator: Sketch 48.2 (47327) - http://www.bohemiancoding.com/sketch -->
    <title>nodejs-seeklogo.com</title>
    <desc>Created with Sketch.</desc>
    <defs>
        <polygon id="path-1" points="0.06 0.745129121 270.847 0.745129121 270.847 132.94 0.06 132.94"></polygon>
    </defs>
    <g id="Page-1" stroke="none" stroke-width="1" fill="none" fill-rule="evenodd">
        <g id="nodejs-seeklogo.com">
            <g id="Group-4">
                <mask id="mask-2" fill="white">
                    <use xlink:href="#path-1"></use>
                </mask>
                <g id="Clip-2"></g>
                <path d="M73.69,71.03 C73.69,69.601 72.938,68.288 71.705,67.58 L38.829,48.66 C38.273,48.333 37.65,48.163 37.019,48.137 C36.962,48.137 36.725,48.137 36.679,48.137 C36.051,48.163 35.428,48.333 34.864,48.66 L1.988,67.58 C0.762,68.288 0,69.601 0,71.03 L0.072,121.976 C0.072,122.684 0.44,123.344 1.064,123.691 C1.674,124.057 2.428,124.057 3.036,123.691 L22.574,112.503 C23.81,111.769 24.562,110.474 24.562,109.058 L24.562,85.256 C24.562,83.837 25.313,82.524 26.544,81.819 L34.864,77.027 C35.484,76.669 36.161,76.494 36.854,76.494 C37.531,76.494 38.227,76.669 38.829,77.027 L47.146,81.819 C48.377,82.524 49.131,83.837 49.131,85.256 L49.131,109.058 C49.131,110.474 49.893,111.777 51.121,112.503 L70.654,123.691 C71.267,124.057 72.032,124.057 72.639,123.691 C73.245,123.344 73.626,122.684 73.626,121.976 L73.69,71.03" id="Fill-1" fill="#272A29" mask="url(#mask-2)"></path>
                <path d="M246.188,97.557 C246.188,97.912 245.998,98.24 245.691,98.416 L234.399,104.925 C234.092,105.102 233.714,105.102 233.408,104.925 L222.115,98.416 C221.808,98.24 221.619,97.912 221.619,97.557 L221.619,84.518 C221.619,84.164 221.808,83.836 222.114,83.658 L233.406,77.136 C233.714,76.959 234.092,76.959 234.4,77.136 L245.692,83.658 C245.998,83.836 246.188,84.164 246.188,84.518 L246.188,97.557 Z M249.239,0.996 C248.624,0.654 247.873,0.662 247.265,1.018 C246.659,1.375 246.286,2.026 246.286,2.73 L246.286,53.184 C246.286,53.679 246.02,54.139 245.592,54.387 C245.162,54.636 244.631,54.636 244.201,54.387 L235.967,49.643 C234.739,48.935 233.227,48.936 231.999,49.644 L199.11,68.625 C197.881,69.334 197.124,70.645 197.124,72.064 L197.124,110.033 C197.124,111.451 197.881,112.762 199.109,113.473 L231.996,132.467 C233.226,133.177 234.74,133.177 235.969,132.467 L268.862,113.473 C270.09,112.762 270.847,111.451 270.847,110.033 L270.847,15.386 C270.847,13.947 270.069,12.619 268.811,11.917 L249.239,0.996 Z" id="Fill-3" fill="#272A29" mask="url(#mask-2)"></path>
            </g>
            <path d="M366.904,84.177 C368.127,83.467 368.88,82.159 368.88,80.743 L368.88,71.542 C368.88,70.128 368.127,68.818 366.902,68.108 L334.225,49.135 C332.996,48.42 331.478,48.419 330.246,49.129 L297.368,68.11 C296.14,68.819 295.383,70.13 295.383,71.549 L295.383,109.507 C295.383,110.935 296.149,112.252 297.389,112.958 L330.061,131.575 C331.266,132.263 332.743,132.27 333.956,131.597 L353.718,120.613 C354.345,120.264 354.735,119.606 354.739,118.89 C354.744,118.174 354.363,117.511 353.742,117.155 L320.657,98.165 C320.039,97.811 319.659,97.153 319.659,96.442 L319.659,84.547 C319.659,83.837 320.037,83.181 320.653,82.827 L330.95,76.89 C331.563,76.536 332.32,76.536 332.932,76.89 L343.235,82.827 C343.85,83.181 344.228,83.837 344.228,84.547 L344.228,93.906 C344.228,94.617 344.608,95.274 345.224,95.628 C345.839,95.983 346.597,95.98 347.211,95.624 L366.904,84.177" id="Fill-5" fill="#272A29"></path>
            <path d="M133.494,48.93 C134.722,48.221 136.236,48.221 137.464,48.93 L170.349,67.907 C171.579,68.616 172.336,69.927 172.336,71.347 L172.336,109.33 C172.336,110.748 171.579,112.059 170.35,112.77 L137.466,131.762 C136.236,132.471 134.722,132.471 133.492,131.762 L100.615,112.77 C99.387,112.059 98.63,110.748 98.63,109.33 L98.63,71.345 C98.63,69.927 99.387,68.616 100.617,67.907 L133.494,48.93" id="Fill-6" fill="#74B943"></path>
            <path d="M331.751,82.399 C331.986,82.263 332.277,82.263 332.513,82.399 L338.824,86.04 C339.059,86.177 339.205,86.428 339.205,86.7 L339.205,93.987 C339.205,94.26 339.059,94.511 338.824,94.648 L332.513,98.289 C332.277,98.425 331.986,98.425 331.751,98.289 L325.445,94.648 C325.209,94.511 325.064,94.26 325.064,93.987 L325.064,86.7 C325.064,86.428 325.209,86.177 325.445,86.04 L331.751,82.399" id="Fill-9" fill="#74B943"></path>
        </g>
    </g>
</svg>