<?xml version="1.0" encoding="UTF-8"?>
<svg width="66px" height="53px" viewBox="0 0 66 53" version="1.1" xmlns="http://www.w3.org/2000/svg" xmlns:xlink="http://www.w3.org/1999/xlink">
    <!-- Generator: Sketch 43.2 (39069) - http://www.bohemiancoding.com/sketch -->
    <title>Group 7</title>
    <desc>Created with Sketch.</desc>
    <defs></defs>
    <g id="Page-1" stroke="none" stroke-width="1" fill="none" fill-rule="evenodd">
        <g id="Group-7">
            <path d="M11.569,7.716 C8.57,7.716 6.13,10.156 6.13,13.154 C6.13,16.153 8.57,18.592 11.569,18.592 C14.567,18.592 17.006,16.153 17.006,13.154 C17.006,10.156 14.567,7.716 11.569,7.716 Z M11.569,19.592 C8.019,19.592 5.13,16.704 5.13,13.154 C5.13,9.605 8.019,6.716 11.569,6.716 C15.119,6.716 18.006,9.605 18.006,13.154 C18.006,16.704 15.119,19.592 11.569,19.592 L11.569,19.592 Z" id="Fill-351" fill="#5C6165"></path>
            <path d="M1.624,34.18 L21.514,34.18 L21.514,25.598 C21.514,23.332 19.67,21.489 17.405,21.489 L5.733,21.489 C3.467,21.489 1.624,23.332 1.624,25.598 L1.624,34.18 Z M22.014,35.18 L1.124,35.18 C0.847,35.18 0.624,34.956 0.624,34.68 L0.624,25.598 C0.624,22.781 2.916,20.489 5.733,20.489 L17.405,20.489 C20.222,20.489 22.514,22.781 22.514,25.598 L22.514,34.68 C22.514,34.956 22.291,35.18 22.014,35.18 L22.014,35.18 Z" id="Fill-352" fill="#5C6165"></path>
            <path d="M17.68,35.18 C17.404,35.18 17.18,34.956 17.18,34.68 L17.18,27.855 C17.18,27.579 17.404,27.355 17.68,27.355 C17.957,27.355 18.18,27.579 18.18,27.855 L18.18,34.68 C18.18,34.956 17.957,35.18 17.68,35.18" id="Fill-353" fill="#5C6165"></path>
            <path d="M5.458,35.18 C5.181,35.18 4.958,34.956 4.958,34.68 L4.958,27.855 C4.958,27.579 5.181,27.355 5.458,27.355 C5.734,27.355 5.958,27.579 5.958,27.855 L5.958,34.68 C5.958,34.956 5.734,35.18 5.458,35.18" id="Fill-354" fill="#5C6165"></path>
            <path d="M44.606,34.18 L64.497,34.18 L64.497,25.598 C64.497,23.332 62.653,21.489 60.387,21.489 L48.715,21.489 C46.45,21.489 44.606,23.332 44.606,25.598 L44.606,34.18 Z M64.997,35.18 L44.106,35.18 C43.83,35.18 43.606,34.956 43.606,34.68 L43.606,25.598 C43.606,22.781 45.898,20.489 48.715,20.489 L60.387,20.489 C63.205,20.489 65.497,22.781 65.497,25.598 L65.497,34.68 C65.497,34.956 65.273,35.18 64.997,35.18 L64.997,35.18 Z" id="Fill-355" fill="#5C6165"></path>
            <path d="M54.551,7.716 C51.553,7.716 49.114,10.156 49.114,13.154 C49.114,16.153 51.553,18.592 54.551,18.592 C57.55,18.592 59.99,16.153 59.99,13.154 C59.99,10.156 57.55,7.716 54.551,7.716 Z M54.551,19.592 C51.001,19.592 48.114,16.704 48.114,13.154 C48.114,9.605 51.001,6.716 54.551,6.716 C58.101,6.716 60.99,9.605 60.99,13.154 C60.99,16.704 58.101,19.592 54.551,19.592 L54.551,19.592 Z" id="Fill-356" fill="#5C6165"></path>
            <path d="M48.44,35.18 C48.164,35.18 47.94,34.956 47.94,34.68 L47.94,27.855 C47.94,27.579 48.164,27.355 48.44,27.355 C48.716,27.355 48.94,27.579 48.94,27.855 L48.94,34.68 C48.94,34.956 48.716,35.18 48.44,35.18" id="Fill-357" fill="#5C6165"></path>
            <path d="M60.663,35.18 C60.386,35.18 60.163,34.956 60.163,34.68 L60.163,27.855 C60.163,27.579 60.386,27.355 60.663,27.355 C60.939,27.355 61.163,27.579 61.163,27.855 L61.163,34.68 C61.163,34.956 60.939,35.18 60.663,35.18" id="Fill-358" fill="#5C6165"></path>
            <path d="M33.06,52.856 C23.313,52.856 14.397,47.514 9.792,38.913 C9.661,38.67 9.753,38.367 9.996,38.236 C10.238,38.107 10.542,38.197 10.672,38.441 C15.104,46.716 23.682,51.856 33.06,51.856 C37.119,51.856 41.154,50.875 44.731,49.019 C44.977,48.891 45.278,48.988 45.405,49.232 C45.533,49.478 45.437,49.779 45.192,49.906 C41.473,51.837 37.278,52.856 33.06,52.856" id="Fill-359" fill="#5C6165"></path>
            <path d="M47.986,48.121 C47.83,48.121 47.675,48.048 47.578,47.91 C47.419,47.685 47.471,47.372 47.697,47.213 C49.307,46.073 50.785,44.746 52.089,43.269 C52.272,43.06 52.589,43.043 52.795,43.226 C53.003,43.409 53.022,43.725 52.839,43.932 C51.483,45.467 49.948,46.845 48.275,48.029 C48.187,48.091 48.086,48.121 47.986,48.121" id="Fill-360" fill="#5C6165"></path>
            <path d="M54.11,42.034 C54.008,42.034 53.907,42.004 53.819,41.94 C53.594,41.78 53.542,41.467 53.704,41.243 C54.34,40.355 54.927,39.412 55.448,38.441 C55.579,38.198 55.883,38.107 56.125,38.237 C56.368,38.367 56.459,38.67 56.329,38.914 C55.788,39.922 55.178,40.902 54.516,41.826 C54.419,41.962 54.265,42.034 54.11,42.034" id="Fill-361" fill="#5C6165"></path>
            <path d="M47.985,5.521 C47.888,5.521 47.791,5.493 47.705,5.435 C43.508,2.6 38.602,1.102 33.517,1.102 C30.969,1.102 28.454,1.478 26.042,2.221 C25.775,2.302 25.498,2.154 25.417,1.89 C25.336,1.626 25.484,1.346 25.748,1.265 C28.255,0.493 30.869,0.102 33.517,0.102 C38.802,0.102 43.902,1.659 48.265,4.606 C48.494,4.761 48.554,5.072 48.399,5.301 C48.302,5.444 48.145,5.521 47.985,5.521" id="Fill-362" fill="#5C6165"></path>
            <path d="M18.135,6.168 C17.983,6.168 17.832,6.098 17.734,5.965 C17.569,5.743 17.616,5.43 17.837,5.266 C19.641,3.931 21.607,2.831 23.682,1.996 C23.94,1.894 24.23,2.017 24.333,2.273 C24.436,2.53 24.311,2.821 24.055,2.924 C22.059,3.727 20.167,4.785 18.433,6.069 C18.343,6.136 18.239,6.168 18.135,6.168" id="Fill-363" fill="#5C6165"></path>
            <path d="M40.388,18.957 C40.388,23.004 37.107,26.284 33.06,26.284 C29.013,26.284 25.733,23.004 25.733,18.957 C25.733,14.91 29.013,11.629 33.06,11.629 C37.107,11.629 40.388,14.91 40.388,18.957" id="Fill-364" fill="#3F99C8"></path>
            <path d="M33.06,12.129 C29.295,12.129 26.233,15.192 26.233,18.957 C26.233,22.721 29.295,25.784 33.06,25.784 C36.825,25.784 39.887,22.721 39.887,18.957 C39.887,15.192 36.825,12.129 33.06,12.129 Z M33.06,26.784 C28.745,26.784 25.233,23.273 25.233,18.957 C25.233,14.641 28.745,11.129 33.06,11.129 C37.375,11.129 40.887,14.641 40.887,18.957 C40.887,23.273 37.375,26.784 33.06,26.784 L33.06,26.784 Z" id="Fill-365" fill="#5C6165"></path>
            <path d="M45.949,43.6 L20.171,43.6 L20.171,34.313 C20.171,31.172 22.718,28.625 25.859,28.625 L40.261,28.625 C43.403,28.625 45.949,31.172 45.949,34.313 L45.949,43.6" id="Fill-366" fill="#3F99C8"></path>
            <path d="M20.671,43.1 L45.45,43.1 L45.45,34.313 C45.45,31.452 43.123,29.125 40.261,29.125 L25.859,29.125 C22.999,29.125 20.671,31.452 20.671,34.313 L20.671,43.1 Z M45.95,44.1 L20.171,44.1 C19.895,44.1 19.671,43.877 19.671,43.6 L19.671,34.313 C19.671,30.901 22.447,28.125 25.859,28.125 L40.261,28.125 C43.673,28.125 46.45,30.901 46.45,34.313 L46.45,43.6 C46.45,43.877 46.226,44.1 45.95,44.1 L45.95,44.1 Z" id="Fill-367" fill="#5C6165"></path>
            <path d="M40.601,44.1 C40.325,44.1 40.101,43.877 40.101,43.6 L40.101,37.098 C40.101,36.821 40.325,36.598 40.601,36.598 C40.878,36.598 41.101,36.821 41.101,37.098 L41.101,43.6 C41.101,43.877 40.878,44.1 40.601,44.1" id="Fill-368" fill="#5C6165"></path>
            <path d="M25.519,44.1 C25.243,44.1 25.019,43.877 25.019,43.6 L25.019,37.098 C25.019,36.821 25.243,36.598 25.519,36.598 C25.795,36.598 26.019,36.821 26.019,37.098 L26.019,43.6 C26.019,43.877 25.795,44.1 25.519,44.1" id="Fill-369" fill="#5C6165"></path>
        </g>
    </g>
</svg>