<?xml version="1.0" encoding="UTF-8"?>
<svg width="1334px" height="397px" viewBox="0 0 1334 397" version="1.1" xmlns="http://www.w3.org/2000/svg" xmlns:xlink="http://www.w3.org/1999/xlink">
    <!-- Generator: Sketch 43.2 (39069) - http://www.bohemiancoding.com/sketch -->
    <title>react-vector</title>
    <desc>Created with Sketch.</desc>
    <defs></defs>
    <g id="Page-1" stroke="none" stroke-width="1" fill="none" fill-rule="evenodd">
        <g id="react-vector" fill-rule="nonzero">
            <path d="M222.729649,237.407585 C244.694764,237.363842 262.469644,219.534745 262.440488,197.575621 C262.411332,175.616497 244.589171,157.834637 222.624018,157.849189 C200.658865,157.863742 182.860293,175.6692 182.86025,197.628343 C182.86025,208.178454 187.052413,218.29646 194.514511,225.756515 C201.976609,233.21657 212.097386,237.407585 222.650386,237.407585 L222.729649,237.407585 Z M422.472965,158.007585 C408.522638,146.596806 389.182412,136.295409 366.196078,128.371257 C361.545969,126.786427 356.737334,125.280838 351.770172,123.854491 C352.615647,120.526347 353.355437,117.277445 353.989542,114.107784 C365.086393,60.4612774 357.160071,18.700998 333.539632,5.07145709 C321.808675,-1.58483034 306.114557,-1.58483034 287.72549,5.07145709 C271.080214,11.2522954 252.453357,22.9800399 233.8265,38.9868263 C230.12755,42.156487 226.4286,45.5374584 222.729649,49.1297405 C220.351753,46.8053227 217.921014,44.5337325 215.437433,42.3149701 C174.537611,5.86387226 134.430422,-8.08263473 110.809982,5.6261477 C99.1582888,12.7578842 91.2319667,26.2289421 87.8236482,45.2469062 C84.8909091,63.4724551 85.7628045,84.8676647 90.4393345,109.432535 L94.4024955,124.488423 C89.1182808,126.073253 83.8340662,127.922222 78.5498515,130.035329 C29.4066548,145.883633 0.0792632204,172.033333 0.0792632204,198.183034 C0.0792632204,211.654092 8.79821747,225.917565 23.8582294,239.388623 C38.125609,252.067265 58.5755199,262.368663 82.2752228,270.847505 L94.1647059,274.017166 C92.5794415,279.511244 91.2583878,284.794012 90.2015449,289.865469 C80.6899584,340.342315 88.6162805,378.21976 111.206298,391.294611 C117.547356,394.860479 124.681046,396.524551 132.607368,396.524551 C140.53369,396.524551 149.252644,394.939721 158.526441,391.453094 C175.964349,385.113772 195.780154,373.227545 214.327748,356.586826 C217.498277,353.945442 220.668806,351.145576 223.839335,348.187226 L235.728818,358.88483 C264.263577,383.449701 292.005704,396.366068 313.406774,396.366068 C321.333096,396.366068 328.466786,394.781238 334.49079,390.977645 C346.380273,383.845908 354.623648,370.137126 358.269756,350.405988 C361.678075,332.180439 360.964706,309.200399 356.050386,284.635529 C355.310596,280.831936 354.438701,276.86986 353.4347,272.749301 L361.836601,270.372056 C413.833274,253.176647 445.855615,225.442116 445.855615,198.262275 C445.855615,184.791218 437.929293,171.082435 422.869281,158.641517 L422.472965,158.007585 Z M246.508616,53.4087824 C263.153892,38.8283433 279.640642,28.2892216 294.304337,22.9800399 C306.986453,18.2255489 317.528461,17.6708583 324.028045,21.3952096 C330.923945,25.3572854 335.917528,35.4209581 338.295425,49.6051896 C341.148901,66.2459082 340.118479,87.0864271 335.362686,110.145709 L333.777421,119.1 C314.192906,114.623959 294.333786,111.44737 274.330006,109.591018 C262.962998,93.1981187 250.517608,77.5794604 237.076292,62.838523 L247.380511,53.488024 L246.508616,53.4087824 Z M131.576946,220.608383 C135.487265,228.215569 139.661794,235.875582 144.100535,243.588423 C148.644959,251.354092 153.295068,258.961277 158.050862,266.40998 C144.285114,264.901942 130.606997,262.680187 117.071777,259.753693 C121.034938,247.07505 125.790731,233.920958 131.497683,220.529142 L131.576946,220.608383 Z M131.418419,175.757685 C125.869994,162.682834 121.114201,149.766467 117.309566,137.246307 C129.991682,134.393613 143.466429,132.095609 157.733809,130.352295 C152.978015,137.642515 148.40717,145.091218 144.021272,152.698403 C139.635373,160.358417 135.408002,168.01843 131.339156,175.678443 L131.418419,175.757685 Z M141.564112,198.103792 C147.350327,186.059082 153.691384,174.014371 160.587285,162.207385 C167.403922,150.321158 174.616875,138.831138 181.988354,127.816567 C195.463102,126.865669 208.937849,126.231737 222.650386,126.231737 C236.362923,126.231737 249.599881,126.786427 263.074629,127.816567 C270.208318,138.672655 277.342008,150.004192 284.475698,162.048902 C291.345177,174.199268 297.686235,186.085496 303.498871,197.707585 C297.950446,209.593812 290.816756,221.717764 284.475698,233.762475 C278.134641,245.807186 270.208318,257.53493 263.074629,268.311776 C249.599881,269.262675 236.125134,269.738124 221.857754,269.738124 C207.590374,269.738124 194.115627,269.341916 181.433512,268.470259 C173.50719,257.376447 166.3735,245.807186 159.23981,234.0002 C152.10612,222.113972 145.765062,210.069261 140.216637,198.103792 L141.564112,198.103792 Z M301.200238,243.271457 C305.797504,235.452961 310.130561,227.608051 314.199406,219.736727 C319.902831,232.512009 324.929787,245.578515 329.259418,258.882036 C315.521805,261.980907 301.631876,264.361386 287.646227,266.013772 L301.120974,243.350699 L301.200238,243.271457 Z M314.040879,175.678443 C309.972034,168.071257 305.69182,160.358417 301.200238,152.53992 C296.814339,144.932735 292.322757,137.53686 287.72549,130.352295 C301.834343,132.095609 315.467617,134.472854 328.149733,137.484032 C324.037204,150.472433 319.275425,163.246375 313.882353,175.757685 L314.040879,175.678443 Z M222.888176,76.3095808 C232.134615,86.4287686 240.864658,97.0077425 249.045039,108.006188 C240.326084,107.477911 231.527867,107.213772 222.650386,107.213772 C213.772906,107.213772 204.789741,107.477911 195.700891,108.006188 C204.419846,96.5161677 213.1388,85.8185629 221.857754,76.3095808 L222.888176,76.3095808 Z M106.688295,48.5750499 C109.066191,35.103992 113.821985,25.8327345 120.321569,22.0291417 C127.217469,18.0670659 138.393583,18.6217565 152.026857,23.6139721 C167.641711,29.5570858 185.317409,40.8886228 202.755318,56.5784431 C205.133214,58.4802395 207.273321,60.540519 209.492692,62.6800399 C195.818843,77.6675081 183.161408,93.5511509 171.604872,110.22495 C151.60273,112.094255 131.744458,115.270709 112.157457,119.733932 C110.99493,115.507718 109.990929,111.017365 109.145455,106.262874 C104.865241,84.8676647 103.993345,65.0572854 106.767558,50.0013972 L106.688295,48.5750499 Z M98.524183,255.157685 C94.8252327,254.101131 91.1791246,252.965336 87.5858586,251.750299 C66.1847891,244.380838 48.1127748,234.792615 35.6684492,224.015768 C24.9679144,214.902994 19.0231729,205.552495 19.0231729,197.628343 C19.0231729,177.976447 51.5210933,158.007585 83.5434343,146.676048 C88.2992276,145.091218 93.5306001,143.506387 98.8412359,141.921557 C104.829892,161.13428 112.085153,179.929261 120.559358,198.183034 C112.168936,216.705886 105.019483,235.765873 99.1582888,255.236926 L98.524183,255.157685 Z M201.56637,341.847904 C164.15413,374.574651 133.4,381.468663 120.559358,374.336926 C103.914082,364.431737 102.328818,326.316567 108.669875,292.955888 L112.633036,278.137725 C132.490025,282.417103 152.6173,285.329464 172.873084,286.854291 C184.753511,303.443617 197.728698,319.22136 211.712062,334.082236 L203.627213,341.847904 L201.56637,341.847904 Z M223.443018,320.452695 C213.931432,310.626747 205.212478,299.8499 196.493523,288.280639 C204.948267,288.597605 213.667221,288.782502 222.650386,288.835329 C231.633551,288.835329 240.616716,288.624019 249.599881,288.201397 C241.441296,299.343524 232.710634,310.055492 223.443018,320.294212 L223.443018,320.452695 Z M324.107308,374.336926 C306.6694,384.321357 273.378847,366.412774 247.221985,344.22515 C243.523034,341.055489 239.824084,337.62169 236.125134,333.923752 C249.602896,318.990576 262.049501,303.158594 273.378847,286.537325 C293.646602,284.821795 313.773467,281.724166 333.618895,277.266068 L335.996791,287.567465 C345.508378,335.90479 335.996791,366.016567 323.314676,373.940719 L324.107308,374.336926 Z M355.099228,251.988024 L347.569222,254.365269 C341.369694,235.038704 333.848374,216.161124 325.058467,197.866068 C333.680207,179.889577 341.094522,161.358864 347.252169,142.397006 C352.007962,143.66487 356.499544,145.03839 360.726916,146.517565 C382.127986,153.649301 399.565894,162.365868 411.455377,172.667265 C421.759596,181.383832 428.100654,190.100399 428.100654,197.232136 C428.100654,211.495609 405.906952,235.268064 356.763755,251.116367 L355.099228,251.988024 Z" id="Shape" fill="#00D8FF"></path>
            <path d="M694.504337,136.295409 C694.504337,95.4067864 665.969578,66.7213573 621.819964,66.7213573 L524.167677,66.7213573 L524.167677,289.073054 L563.165181,289.073054 L563.165181,206.027944 L601.845633,206.027944 L651.226619,288.993812 L696.168865,288.993812 L641.873559,201.669661 C668.506001,197.390619 694.504337,176.074651 694.504337,136.374651 L694.504337,136.295409 Z M563.165181,171.716367 L563.165181,101.191417 L616.509329,101.191417 C638.544504,101.032934 654.555674,115.058683 654.555674,136.374651 C654.555674,157.690619 638.544504,172.033333 616.509329,172.033333 L563.165181,171.716367 Z M794.217469,124.171457 C746.659537,124.171457 712.576352,161.731936 712.576352,208.40519 C712.576352,259.357485 748.561854,293.03513 796.912418,293.03513 C822.593702,293.03513 846.293405,285.110978 862.225312,269.738124 L846.372668,246.758084 C834.958764,258.089621 816.252644,264.428942 800.558526,264.428942 C770.279976,264.428942 751.890909,244.380838 749.275223,220.053693 L873.480689,220.053693 L873.480689,211.733333 C873.480689,161.018762 842.568033,124.092216 794.217469,124.092216 L794.217469,124.171457 Z M748.878907,195.488822 C750.464171,175.678443 764.255971,152.698403 794.217469,152.698403 C825.922757,152.698403 838.921925,176.470858 839.556031,195.488822 L748.878907,195.488822 Z M974.541295,124.171457 C948.860012,124.171457 925.556625,132.412575 906.929768,150.083433 L921.197148,174.410579 C935.226738,160.939521 950.920856,154.6002 968.913607,154.6002 C991.265835,154.6002 1006.56364,166.486427 1006.56364,184.711976 L1006.56364,208.484431 C994.674153,195.013373 975.65098,187.881637 954.249911,187.881637 C928.093048,187.881637 897.973024,203.72994 897.973024,240.181038 C897.973024,275.839721 927.300416,294.065269 953.457279,294.065269 C974.858348,294.065269 993.088889,286.933533 1004.97837,272.67006 L1004.97837,290.103194 L1039.85419,290.103194 L1039.85419,182.255489 C1039.85419,138.910379 1008.30743,123.933733 972.638978,123.933733 L974.541295,124.171457 Z M1006.56364,252.384232 C997.844682,263.478044 983.577302,269.02495 967.724658,269.02495 C947.908853,269.02495 932.848841,257.693413 932.848841,240.339521 C932.848841,222.668663 947.116221,211.337126 966.932026,211.337126 C981.992038,211.337126 997.05205,217.042515 1004.97837,227.977844 L1006.56364,252.384232 Z M1161.91955,155.075649 C1177.24377,155.075649 1189.39746,161.41497 1198.38063,174.093613 L1221.36696,152.698403 C1209.47748,137.40479 1190.45431,124.171457 1159.54165,124.171457 C1110.39846,124.171457 1076.31527,159.83014 1076.31527,208.40519 C1076.31527,257.376447 1110.39846,293.03513 1159.54165,293.03513 C1190.45431,293.03513 1209.47748,279.722555 1221.36696,264.508184 L1198.38063,243.112974 C1188.86904,255.395409 1176.97956,262.130938 1161.12692,262.130938 C1131.79952,262.130938 1111.98372,239.78483 1111.98372,208.40519 C1111.98372,177.025549 1131.00689,155.075649 1160.33428,155.075649 L1161.91955,155.075649 Z M1325.20178,256.50479 C1322.03125,259.357485 1315.6902,262.051697 1309.34914,262.051697 C1299.04492,262.051697 1293.49649,254.127545 1293.49649,243.033733 L1293.49649,158.720758 L1325.99441,158.720758 L1325.99441,128.054291 L1293.49649,128.054291 L1293.49649,83.996008 L1258.62068,83.996008 L1258.62068,128.054291 L1232.46381,128.054291 L1232.46381,158.720758 L1258.62068,158.720758 L1258.62068,251.750299 C1258.62068,278.375449 1273.36364,292.955888 1300.63018,292.955888 C1316.79988,292.955888 1327.1041,288.676846 1333.44516,282.654491 L1325.20178,256.50479 Z" id="Shape" fill="#FFFFFF"></path>
        </g>
    </g>
</svg>