<?xml version="1.0" encoding="UTF-8"?>
<svg width="751px" height="313px" viewBox="0 0 751 313" version="1.1" xmlns="http://www.w3.org/2000/svg" xmlns:xlink="http://www.w3.org/1999/xlink">
    <g fill="#6772E5">
        <path d="M751,161.731573 C751,108.222222 725.131898,66 675.690444,66 C626.040377,66 596,108.222222 596,161.313531 C596,224.228823 631.464334,256 682.366083,256 C707.191117,256 725.966353,250.356436 740.152086,242.413641 L740.152086,200.609461 C725.966353,207.716172 709.694482,212.105611 689.041723,212.105611 C668.806191,212.105611 650.86541,204.9989 648.570659,180.334433 L750.582773,180.334433 C750.582773,177.617162 751,166.748075 751,161.731573 Z M647.944818,141.874587 C647.944818,118.255226 662.339166,108.431243 675.48183,108.431243 C688.207268,108.431243 701.76716,118.255226 701.76716,141.874587 L647.944818,141.874587 Z" id="Shape"></path>
        <path d="M515.7,66 C495.209091,66 482.036364,75.6125212 474.718182,82.2994924 L472,69.3434856 L426,69.3434856 L426,313 L478.272727,301.924704 L478.481818,242.786802 C486.009091,248.219966 497.090909,255.951777 515.490909,255.951777 C552.918182,255.951777 587,225.860406 587,159.617597 C586.790909,99.0169205 552.290909,66 515.7,66 Z M503.154545,209.978849 C490.818182,209.978849 483.5,205.590525 478.481818,200.15736 L478.272727,122.630288 C483.709091,116.57022 491.236364,112.390863 503.154545,112.390863 C522.181818,112.390863 535.354545,133.705584 535.354545,161.080372 C535.354545,189.082064 522.390909,209.978849 503.154545,209.978849 Z" id="Shape"></path>
        <polygon id="Shape" points="354 54 406 42.6536965 406 0 354 11.1361868"></polygon>
        <rect id="Rectangle-path" x="354" y="69" width="52" height="183"></rect>
        <path d="M298.509091,84.6229744 L295.163636,69.1599283 L250,69.1599283 L250,252 L302.272727,252 L302.272727,128.086671 C314.609091,111.996745 335.518182,114.922186 342,117.220747 L342,69.1599283 C335.309091,66.6524073 310.845455,62.0552855 298.509091,84.6229744 Z" id="Shape"></path>
        <path d="M194.370968,24 L143.209677,34.8684685 L143,202.284685 C143,233.218018 166.274194,256 197.306452,256 C214.5,256 227.080645,252.864865 234,249.102703 L234,206.673874 C227.290323,209.390991 194.16129,219.005405 194.16129,188.072072 L194.16129,113.873874 L234,113.873874 L234,69.354955 L194.16129,69.354955 L194.370968,24 Z" id="Shape"></path>
        <path d="M52.592126,122.582418 C52.592126,114.43956 59.2440945,111.307692 70.2614173,111.307692 C86.0598425,111.307692 106.015748,116.10989 121.814173,124.67033 L121.814173,75.6043956 C104.56063,68.7142857 87.5149606,66 70.2614173,66 C28.0629921,66 0,88.1318681 0,125.087912 C0,182.714286 78.992126,173.527473 78.992126,198.373626 C78.992126,207.978022 70.6771654,211.10989 59.0362205,211.10989 C41.7826772,211.10989 19.7480315,204.010989 2.28661417,194.406593 L2.28661417,244.098901 C21.6188976,252.450549 41.1590551,256 59.0362205,256 C102.274016,256 132,234.494505 132,197.120879 C131.792126,134.901099 52.592126,145.967033 52.592126,122.582418 Z" id="Shape"></path>
    </g>
</svg>
